<svg width="1252" height="1159" viewBox="0 0 1252 1159" fill="none" xmlns="http://www.w3.org/2000/svg">
<path d="M905.68 0H571.32C563.411 0 557 6.39922 557 14.2931V263.707C557 271.601 563.411 278 571.32 278H905.68C913.589 278 920 271.601 920 263.707V14.2931C920 6.39922 913.589 0 905.68 0Z" fill="#F2F6FB"/>
<path d="M613.27 220.847L667.459 138.762C672.602 130.969 683.876 130.166 690.059 137.15L711.922 161.78C721.897 172.998 739.984 171.278 747.611 158.403L799.748 70.2632C804.967 61.4338 817.431 60.8259 823.576 69.0718L878.881 144.161C880.169 145.91 882.633 146.285 884.386 145C886.138 143.714 886.514 141.254 885.226 139.504L829.909 64.3976C820.4 51.6386 801.055 52.582 792.966 66.2676L740.831 154.404C735.925 162.686 724.246 163.797 717.815 156.564L695.957 131.941C686.341 121.078 668.877 122.323 660.882 134.438L606.694 216.521C605.497 218.334 606 220.771 607.816 221.966C609.632 223.16 612.074 222.659 613.27 220.847Z" fill="#E1E5F0"/>
<path d="M635.4 192.242C641.924 192.242 647.213 186.962 647.213 180.45C647.213 173.937 641.924 168.658 635.4 168.658C628.875 168.658 623.586 173.937 623.586 180.45C623.586 186.962 628.875 192.242 635.4 192.242Z" fill="#F50041"/>
<path d="M767.139 128.638C773.663 128.638 778.952 123.358 778.952 116.846C778.952 110.333 773.663 105.054 767.139 105.054C760.614 105.054 755.325 110.333 755.325 116.846C755.325 123.358 760.614 128.638 767.139 128.638Z" fill="#FFCB3D"/>
<path d="M887.65 782.011C909.963 781.69 932.907 781.612 956.48 781.774C992.21 782.021 986.927 785.12 1005.31 782.021C1016.5 780.134 1022.84 776.471 1026.1 776.982C1028.19 777.31 1029 779.361 1029 784.715C1029 793.837 1024.92 812.857 1016.77 841.772L967.48 948.781L949.12 998.281C943.374 1013.77 928.695 1024.14 912.174 1024.37L795 1026L864.821 791.058C866.453 785.566 871.534 781.825 877.264 781.898L886.242 782.012C886.711 782.018 887.18 782.017 887.65 782.011Z" fill="#A339FF"/>
<path d="M970.973 1041.09C970.673 1044.41 967.889 1047 964.5 1047H953.015L982.026 1155.27C982.011 1155.67 979.776 1156.57 976.773 1157.38C975.387 1157.75 973.985 1158.06 973.027 1158.18C972.07 1158.3 971.451 1158.3 971.401 1158.12L941.627 1047H262.974L233.2 1158.12C232.984 1158.46 230.599 1158.12 227.597 1157.32C226.211 1156.94 224.841 1156.51 223.951 1156.14C223.06 1155.77 222.525 1155.46 222.575 1155.27L251.586 1047H243.5C239.91 1047 237 1044.09 237 1040.5C237 1036.91 239.91 1034 243.5 1034H959.667L1043.34 790.994C1044.51 787.599 1048.21 785.795 1051.6 786.964C1055 788.133 1056.8 791.832 1055.63 795.226L970.973 1041.09Z" fill="#E1E5F0"/>
<g clip-path="url(#clip0)">
<path d="M275.994 780.645L275.486 780.963C273.588 782.267 273.069 784.832 274.287 786.782L360.113 921.113C361.417 923.011 363.982 923.531 365.933 922.312L366.441 921.994C368.339 920.69 368.859 918.125 367.64 916.174L281.867 781.928C280.595 779.893 278.03 779.373 275.994 780.645ZM496.206 1024.99L335.206 1024.99C332.72 1024.99 330.706 1027.01 330.706 1029.49C330.706 1031.98 332.72 1033.99 335.206 1033.99L496.206 1033.99C498.691 1033.99 500.706 1031.98 500.706 1029.49C500.706 1027.01 498.691 1024.99 496.206 1024.99Z" fill="#FFCB3D"/>
<path d="M281.123 780.788C281.43 781.057 281.705 781.378 281.938 781.75L367.711 915.996C368.129 916.665 368.343 917.407 368.366 918.146L417.928 888.524L381.767 821.974L361.087 813.789C355.438 812.484 349.915 810.629 344.573 808.307C331.758 802.518 328.611 797.292 311.885 786.754C307.391 783.902 302.833 781.326 297.936 778.962C295.074 778.156 289.615 776.968 284.909 778.494C284.124 778.749 283.446 779.172 282.799 779.459C282.166 779.854 281.61 780.306 281.123 780.788ZM334.692 1024.85C334.883 1024.83 335.079 1024.82 335.277 1024.82L496.277 1024.82C496.498 1024.82 496.715 1024.83 496.928 1024.86L496.928 957.995L428.517 957.995C415.6 966.862 407.775 972.663 405.042 975.396C400.942 979.496 396.442 983.196 391.642 986.496C379.942 994.296 373.842 994.196 356.042 1002.8C351.242 1005.1 346.642 1007.6 342.042 1010.5C337.442 1013.4 335.942 1016.5 334.742 1021.3C334.542 1022.1 334.542 1022.9 334.442 1023.6C334.442 1024.06 334.532 1024.48 334.692 1024.85Z" fill="#474961"/>
<path d="M391.472 855.781L377.159 811.866C374.754 804.487 377.992 796.445 384.84 792.792L415.425 776.475C430.583 752.814 451.53 737.317 480.758 749.181C481.66 749.547 482.592 749.938 483.554 750.355L482.705 749.867C531.739 722.417 562.021 707.115 573.553 703.96C585.084 700.806 596.792 705.381 608.676 717.685L732.949 891.355C808.59 895.872 846.509 918.142 846.707 958.165C846.903 998.189 825.464 1022.61 782.391 1031.42C739.909 1034.97 705.001 1033.74 677.666 1027.74C646.694 1029.41 620.175 1025.32 598.11 1015.48C562.649 999.663 529.492 964.883 498.639 911.138L497.099 958.885H392.666C387.144 958.885 382.666 954.408 382.666 948.885C382.666 948.663 382.674 948.441 382.689 948.219C385.161 911.156 388.089 880.343 391.472 855.781Z" fill="#DE3190"/>
<path opacity="0.176986" d="M677.883 1027.73C646.818 1029.42 620.226 1025.34 598.11 1015.48C562.649 999.663 529.492 964.883 498.639 911.138L497.098 958.885H392.666C387.143 958.885 382.666 954.408 382.666 948.885C382.666 948.663 382.673 948.441 382.688 948.219C388.159 866.201 395.861 814.792 405.792 793.992C421.324 761.461 444.759 734.57 480.757 749.181C482.031 749.698 483.365 750.265 484.758 750.884L551.868 789.508L559.389 822.838C577.064 919.363 599.619 979.853 627.055 1004.31C639.204 1015.14 656.147 1022.94 677.883 1027.73Z" fill="#444444"/>
<path d="M845.083 767.29C853.871 767.808 864.129 770.318 873.386 777.512C884.289 785.934 888.687 795.543 896.644 814.919C903.25 831.011 908.934 845.253 902.413 853.609C897.64 859.725 889.279 859.725 883.66 859.343C875.334 857.711 867.588 857.101 860.046 856.849L842.099 895.903C840.277 901.023 827.59 933.141 823.855 937.105C813.185 948.515 786.082 937.18 742.545 903.097C731.559 893.269 728.495 881.507 733.352 867.81C736.144 859.054 738.751 850.93 741.173 843.438C735.607 842.685 727.536 840.664 724.174 834.579C719.053 825.299 727.549 812.225 737.121 797.706C748.554 780.181 754.712 771.591 766.957 765.323C774.493 761.488 782.079 760.137 788.996 760.108C801.853 757.361 821.824 756.714 845.083 767.29Z" fill="#FFCB3D"/>
<path opacity="0.176986" d="M740.824 843.599C735.302 842.771 727.762 840.67 724.542 834.842C719.421 825.562 728.228 812.674 737.489 797.969C748.764 780.068 755.08 771.208 767.324 764.941C774.402 761.339 781.524 760.014 788.094 759.94C782.925 761.098 778.967 762.582 776.484 763.76C770.205 766.705 768.454 769.213 763.86 777.407C761.278 782.012 753.599 804.076 740.824 843.599Z" fill="#8C2A00"/>
<path d="M678.556 792.175L678.554 792.292L748.214 793.239C751.114 793.27 753.532 790.878 753.563 787.978L753.708 779.775C753.738 776.876 751.346 774.457 748.446 774.427L678.927 773.554L678.928 773.485L671.469 778.389C668.213 780.469 668.123 785.065 671.305 787.157L678.556 792.175Z" fill="#474BFF"/>
<path d="M827 742.88C828.663 748.103 831.343 754.917 835.038 763.322C830.425 761.759 825.441 760.566 820.086 759.742C812.055 758.507 808.45 758.392 804.445 758.383L803.7 752.226C797.535 754.351 797.887 754.159 797.338 754.398C792.976 755.471 788.556 755.74 784.167 755.41C775.605 754.461 766.236 738.348 762.62 715.628C762.32 713.71 762.214 711.902 762.109 710.094L761.963 691.861C761.883 687.651 762.891 683.698 764.877 680.198C765.649 678.836 766.621 677.485 767.594 676.134C778.728 662.398 797.938 664.607 801.513 665.194C801.912 665.215 802.306 665.336 802.806 665.362C806.459 666.355 810.043 666.743 813.738 666.937C815.436 667.026 816.671 668.292 816.582 669.99L816.115 696.101C816.126 697.804 824.37 696.206 826.178 696.101C830.993 695.953 837.393 699.895 839.134 704.893C840.459 710.169 839.581 717.436 836.087 721.058C834.818 722.327 831.818 729.587 827.084 742.839C827.069 742.848 827.04 742.862 827 742.88ZM736.783 793.117L742.204 793.191C744.63 797.701 746.928 801.944 748.893 805.527C751.024 807.63 752.528 809.107 752.732 809.333L823.96 885.378C823.96 885.378 826.212 862.839 826.646 855.937C845.918 857.533 863.002 855.294 883.66 859.343C886.675 859.548 890.573 859.557 894.254 858.66C892.844 870.63 890.621 886.691 886.817 905.483C875.378 961.908 865.21 967.781 860.721 969.504C856.892 970.973 845.133 974.276 823.962 959.377C815.469 951.655 806.905 943.354 798.361 934.515C774.284 909.652 753.836 884.221 736.441 859.185C733.35 867.306 731.624 873.182 731.262 876.814C730.911 880.343 731.819 884.966 733.618 891.355C733.667 891.528 733.443 891.528 732.948 891.355L718.905 871.948C720.438 869.454 723.451 861.014 727.946 846.629C721.22 836.419 714.992 826.302 709.222 816.345L688.908 792.63C687.062 790.384 687.227 787.064 689.512 785.126L691.544 783.513C692.458 782.738 693.539 782.335 694.629 782.269L693.252 780.661C691.405 778.416 691.57 775.096 693.856 773.158L695.888 771.545C697.372 770.287 699.276 769.954 700.959 770.501C700.63 768.708 701.211 766.801 702.735 765.509L704.767 763.895C707.053 761.958 710.383 762.346 712.27 764.499L714.388 766.972C712.795 760.08 713.362 753.553 719.964 751.396C719.964 751.396 725.446 761.793 732.078 774.255L720.501 774.109L736.783 793.117Z" fill="#F2A98A"/>
<path d="M859.355 699.759C859.722 701.675 860.012 703.501 860.393 705.331C861.78 705.604 863.263 705.982 864.924 706.77C866.096 707.332 874.122 710.857 877.461 717.841C882.241 727.905 877.099 743.858 861.67 753.564C860.845 754.021 860.13 754.284 860.13 754.284C857.476 755.247 854.969 755.316 852.362 755.379C851.863 755.353 851.259 755.422 851.259 755.422C845.803 755.069 839.992 754.69 833.825 754.284C830.383 753.73 828.186 750.788 827.234 745.458C826.975 744.004 826.868 742.223 826.825 740.217C826.561 736.517 826.087 729.757 825.752 724.344C829.078 723.917 832.162 722.376 834.49 719.995C838.184 716.384 839.371 710.938 837.73 705.946C835.989 700.948 830.99 696.981 826.175 697.129C824.367 697.234 822.633 697.845 820.983 698.759C818.902 700.253 817.105 702.061 815.98 704.405L811.069 715.964L811.156 716.039C811.089 716.048 811.025 716.054 810.964 716.059C802.003 716.991 798.069 683.139 778.947 677.33C774.51 675.996 769.699 676.458 766.961 677.116C775.192 661.22 801.431 664.595 801.93 664.621C807.891 665.534 813.433 667.021 816.629 667.188C832.386 668.415 838.583 666.737 846.362 671.15C849.28 672.805 851.971 674.949 853.927 677.755C859.178 685.092 859.732 693.808 859.355 699.759ZM774.892 706.185C773.904 705.933 773.673 704.619 774.408 703.957C775.449 703.21 777.088 702.495 779.081 702.7C783.364 703.125 787.612 706.151 782.866 706.904C780.033 707.456 776.863 706.789 774.892 706.185ZM757.937 704.896C756.954 704.544 756.822 703.236 757.752 702.684C758.887 702.042 760.422 701.422 762.603 701.836C766.771 702.555 770.798 705.971 765.868 706.413C762.851 706.656 759.902 705.6 757.937 704.896Z" fill="#482D1F"/>
<path d="M766.075 710.264C766.029 709.714 766.439 709.23 766.989 709.185C767.54 709.14 768.023 709.549 768.068 710.099L768.558 716.033L768.561 716.158L768.105 726.747C768.137 726.867 768.227 726.951 768.358 726.97C768.702 726.954 769.053 726.963 769.439 726.993C769.74 727.016 769.969 727.042 770.498 727.107C772.035 727.296 772.706 727.298 773.573 727.02C774.099 726.852 774.661 727.142 774.83 727.668C774.998 728.194 774.708 728.757 774.182 728.925C772.958 729.317 772.063 729.314 770.254 729.092C769.755 729.03 769.545 729.007 769.284 728.987C768.955 728.961 768.669 728.955 768.4 728.971L768.29 728.971C767.123 728.91 766.234 728.032 766.108 726.919L766.102 726.763L766.56 716.135L766.075 710.264Z" fill="#482D1F"/>
<path d="M775.9 736.04C776.602 735.952 778.409 735.584 778.828 734.491C778.831 734.291 779.036 733.994 778.94 733.793C778.649 733.287 775.549 733.233 775.549 733.233C771.448 733.262 770.452 733.044 770.143 733.539C770.038 733.837 770.031 734.237 770.715 735.149C771.485 736.863 774.797 736.221 775.9 736.04Z" fill="#482D1F"/>
<path d="M803.361 752.21L811.628 749.239L804.403 758.065L803.361 752.21Z" fill="#482D1F"/>
<path d="M764.567 717.861C763.264 719.795 760.109 715.024 760.981 711.765C761.254 710.377 762.174 710.025 762.878 709.962C763.977 710.019 765.133 710.881 765.165 712.185C765.376 713.898 765.529 716.71 764.567 717.861ZM780.803 718.367C779.4 720.296 776.345 715.529 777.217 712.271C777.49 710.883 778.41 710.531 779.114 710.467C780.212 710.525 781.369 711.387 781.401 712.69C781.611 714.403 781.864 717.221 780.803 718.367Z" fill="#482D1F"/>
<path d="M625.462 733.574C622.873 735.455 622.298 739.086 624.179 741.675L709.937 859.711C711.818 862.3 715.449 862.875 718.038 860.994C720.627 859.113 721.202 855.481 719.321 852.892L633.563 734.857C631.683 732.268 628.051 731.693 625.462 733.574Z" fill="#474961"/>
<path opacity="0.2" d="M728.065 847C723.549 861.464 720.522 869.946 718.984 872.448L733.027 891.855C733.523 892.028 733.746 892.028 733.697 891.855C731.898 885.466 730.99 880.843 731.341 877.314C731.707 873.642 733.468 867.675 736.623 859.415L728.065 847Z" fill="#8C2A00"/>
<path d="M825.283 832.027C825.218 832.12 825.092 832.31 824.916 832.586C824.618 833.053 824.295 833.585 823.958 834.173C822.662 836.433 821.556 838.816 820.842 841.132C818.939 847.301 820.172 851.282 825.768 852.733C826.57 852.94 827.051 853.759 826.844 854.561C826.636 855.363 825.817 855.844 825.015 855.637C817.432 853.671 815.63 847.852 817.975 840.247C818.763 837.691 819.958 835.118 821.355 832.681C821.716 832.051 822.064 831.478 822.387 830.972C822.583 830.665 822.73 830.445 822.814 830.323C823.285 829.641 824.219 829.47 824.9 829.94C825.582 830.411 825.753 831.345 825.283 832.027Z" fill="#482D1F"/>
</g>
<path d="M1172 458H799C787.954 458 779 466.954 779 478V563C779 574.046 787.954 583 799 583H1172C1183.05 583 1192 574.046 1192 563V478C1192 466.954 1183.05 458 1172 458Z" fill="#E1E5F0"/>
<path d="M817.459 517.509H1026.4C1027.5 517.509 1028.4 518.404 1028.4 519.509V529.958C1028.4 531.062 1027.5 531.958 1026.4 531.958H817.459C816.354 531.958 815.459 531.062 815.459 529.958V519.509C815.459 518.404 816.354 517.509 817.459 517.509ZM817.459 540.988H1044.44C1045.55 540.988 1046.44 541.883 1046.44 542.988V553.436C1046.44 554.541 1045.55 555.436 1044.44 555.436H817.459C816.354 555.436 815.459 554.541 815.459 553.436V542.988C815.459 541.883 816.354 540.988 817.459 540.988Z" fill="#F2F6FB"/>
<path d="M1048.05 494.03H817.459C816.354 494.03 815.459 494.926 815.459 496.03V506.479C815.459 507.583 816.354 508.479 817.459 508.479H1048.05C1049.15 508.479 1050.05 507.583 1050.05 506.479V496.03C1050.05 494.926 1049.15 494.03 1048.05 494.03Z" fill="#F2F6FB"/>
<path d="M1172 316H799C787.954 316 779 324.954 779 336V421C779 432.046 787.954 441 799 441H1172C1183.05 441 1192 432.046 1192 421V336C1192 324.954 1183.05 316 1172 316Z" fill="#F2F6FB"/>
<path d="M1129.45 557.242C1109.52 557.242 1093.36 541.07 1093.36 521.121C1093.36 501.172 1109.52 485 1129.45 485C1149.38 485 1165.54 501.172 1165.54 521.121C1165.54 541.07 1149.38 557.242 1129.45 557.242ZM851.55 414.648C831.617 414.648 815.459 398.476 815.459 378.527C815.459 358.578 831.617 342.406 851.55 342.406C871.482 342.406 887.641 358.578 887.641 378.527C887.641 398.476 871.482 414.648 851.55 414.648Z" fill="#474BFF"/>
<path fill-rule="evenodd" clip-rule="evenodd" d="M851.531 378.039C846.616 378.039 842.632 374.105 842.632 369.253C842.632 364.4 846.616 360.467 851.531 360.467C856.446 360.467 860.43 364.4 860.43 369.253C860.43 374.105 856.446 378.039 851.531 378.039ZM851.531 382.432C860.439 382.432 867.661 389.562 867.661 398.357H835.401C835.401 389.562 842.623 382.432 851.531 382.432ZM1129.43 520.633C1124.52 520.633 1120.53 516.699 1120.53 511.847C1120.53 506.994 1124.52 503.06 1129.43 503.06C1134.35 503.06 1138.33 506.994 1138.33 511.847C1138.33 516.699 1134.35 520.633 1129.43 520.633ZM1129.43 525.026C1138.34 525.026 1145.56 532.156 1145.56 540.951H1113.3C1113.3 532.156 1120.52 525.026 1129.43 525.026Z" fill="white"/>
<path d="M907.687 371.303H1116.62C1117.73 371.303 1118.62 372.198 1118.62 373.303V383.751C1118.62 384.856 1117.73 385.751 1116.62 385.751H907.687C906.582 385.751 905.687 384.856 905.687 383.751V373.303C905.687 372.198 906.582 371.303 907.687 371.303ZM907.687 394.782H1152.71C1153.82 394.782 1154.71 395.677 1154.71 396.782V407.23C1154.71 408.335 1153.82 409.23 1152.71 409.23H907.687C906.582 409.23 905.687 408.335 905.687 407.23V396.782C905.687 395.677 906.582 394.782 907.687 394.782Z" fill="#E1E5F0"/>
<path d="M1066.1 347.824H907.687C906.582 347.824 905.687 348.72 905.687 349.824V360.273C905.687 361.377 906.582 362.273 907.687 362.273H1066.1C1067.2 362.273 1068.1 361.377 1068.1 360.273V349.824C1068.1 348.72 1067.2 347.824 1066.1 347.824Z" fill="#E1E5F0"/>
<path d="M421.3 623.2H115.7C103.7 623.2 93.9004 614.316 93.9004 603.438V420.961C93.9004 410.084 103.7 401.2 115.7 401.2H421.3C433.3 401.2 443.1 410.084 443.1 420.961V603.348C443.1 614.316 433.3 623.2 421.3 623.2Z" fill="#F2F6FB"/>
<path d="M94 400.005C94 388.957 102.956 380 114.001 380H422.999C434.045 380 443 388.962 443 400.005V423H94V400.005Z" fill="#E1E5F0"/>
<path d="M147.75 504H186.25C189.426 504 192 506.574 192 509.75C192 512.926 189.426 515.5 186.25 515.5H147.75C144.574 515.5 142 512.926 142 509.75C142 506.574 144.574 504 147.75 504ZM147.75 568H186.25C189.426 568 192 570.574 192 573.75C192 576.926 189.426 579.5 186.25 579.5H147.75C144.574 579.5 142 576.926 142 573.75C142 570.574 144.574 568 147.75 568ZM206.75 504H245.25C248.426 504 251 506.574 251 509.75C251 512.926 248.426 515.5 245.25 515.5H206.75C203.574 515.5 201 512.926 201 509.75C201 506.574 203.574 504 206.75 504ZM206.75 568H245.25C248.426 568 251 570.574 251 573.75C251 576.926 248.426 579.5 245.25 579.5H206.75C203.574 579.5 201 576.926 201 573.75C201 570.574 203.574 568 206.75 568ZM265.75 504H304.25C307.426 504 310 506.574 310 509.75C310 512.926 307.426 515.5 304.25 515.5H265.75C262.574 515.5 260 512.926 260 509.75C260 506.574 262.574 504 265.75 504ZM265.75 568H304.25C307.426 568 310 570.574 310 573.75C310 576.926 307.426 579.5 304.25 579.5H265.75C262.574 579.5 260 576.926 260 573.75C260 570.574 262.574 568 265.75 568ZM147.75 472H219.25C222.426 472 225 474.574 225 477.75C225 480.926 222.426 483.5 219.25 483.5H147.75C144.574 483.5 142 480.926 142 477.75C142 474.574 144.574 472 147.75 472ZM309.75 472H390.25C393.426 472 396 474.574 396 477.75C396 480.926 393.426 483.5 390.25 483.5H309.75C306.574 483.5 304 480.926 304 477.75C304 474.574 306.574 472 309.75 472ZM309.75 536H390.25C393.426 536 396 538.574 396 541.75C396 544.926 393.426 547.5 390.25 547.5H309.75C306.574 547.5 304 544.926 304 541.75C304 538.574 306.574 536 309.75 536ZM239.75 536H254.25C257.426 536 260 538.574 260 541.75C260 544.926 257.426 547.5 254.25 547.5H239.75C236.574 547.5 234 544.926 234 541.75C234 538.574 236.574 536 239.75 536ZM274.75 472H289.25C292.426 472 295 474.574 295 477.75C295 480.926 292.426 483.5 289.25 483.5H274.75C271.574 483.5 269 480.926 269 477.75C269 474.574 271.574 472 274.75 472ZM324.75 504H390.25C393.426 504 396 506.574 396 509.75C396 512.926 393.426 515.5 390.25 515.5H324.75C321.574 515.5 319 512.926 319 509.75C319 506.574 321.574 504 324.75 504Z" fill="#E1E5F0"/>
<path d="M147.75 536H219.25C222.426 536 225 538.574 225 541.75C225 544.926 222.426 547.5 219.25 547.5H147.75C144.574 547.5 142 544.926 142 541.75C142 538.574 144.574 536 147.75 536ZM274.75 536H289.25C292.426 536 295 538.574 295 541.75C295 544.926 292.426 547.5 289.25 547.5H274.75C271.574 547.5 269 544.926 269 541.75C269 538.574 271.574 536 274.75 536Z" fill="#A339FF"/>
<path d="M239.75 472H254.25C257.426 472 260 474.574 260 477.75C260 480.926 257.426 483.5 254.25 483.5H239.75C236.574 483.5 234 480.926 234 477.75C234 474.574 236.574 472 239.75 472ZM324.75 568H390.25C393.426 568 396 570.574 396 573.75C396 576.926 393.426 579.5 390.25 579.5H324.75C321.574 579.5 319 576.926 319 573.75C319 570.574 321.574 568 324.75 568Z" fill="#FF5645"/>
<path d="M145 349H20C8.9543 349 0 357.954 0 369V432C0 443.046 8.9543 452 20 452H145C156.046 452 165 443.046 165 432V369C165 357.954 156.046 349 145 349Z" fill="#F50041"/>
<path fill-rule="evenodd" clip-rule="evenodd" d="M57.235 373.866C58.9661 376.017 58.6253 379.165 56.4739 380.896L28.9605 403.033L57.4024 418.615C59.8242 419.942 60.7119 422.981 59.3851 425.402C58.0583 427.824 55.0195 428.712 52.5977 427.385L17.5977 408.21C16.1336 407.408 15.1665 405.928 15.0195 404.265C14.8725 402.603 15.565 400.976 16.8656 399.93L50.2051 373.104C52.3565 371.373 55.504 371.714 57.235 373.866Z" fill="white"/>
<path fill-rule="evenodd" clip-rule="evenodd" d="M102.824 374.25C104.343 371.944 107.443 371.305 109.75 372.824L144.75 395.874C146.14 396.79 146.984 398.338 146.999 400.003C147.015 401.668 146.201 403.231 144.828 404.173L111.366 427.123C109.089 428.685 105.977 428.105 104.415 425.828C102.853 423.551 103.433 420.439 105.71 418.877L133.037 400.134L104.25 381.176C101.943 379.657 101.305 376.556 102.824 374.25Z" fill="white"/>
<path fill-rule="evenodd" clip-rule="evenodd" d="M89.3408 362.498C92.0336 363.11 93.7203 365.79 93.1082 368.482L77.8757 435.493C77.2636 438.186 74.5846 439.872 71.8918 439.26C69.1991 438.648 67.5124 435.969 68.1245 433.276L83.3569 366.266C83.969 363.573 86.6481 361.886 89.3408 362.498Z" fill="white"/>
<defs>
<clipPath id="clip0">
<path d="M116 87H1132V1034H116V87Z" fill="white"/>
</clipPath>
</defs>
</svg>
