<svg width="1958" height="1396" viewBox="0 0 1958 1396" fill="none" xmlns="http://www.w3.org/2000/svg">
<g clip-path="url(#clip0)">
<path d="M1160.17 1175.8H1081.07C1078.67 1175.8 1076.57 1173.8 1076.57 1171.4V1170.9C1076.57 1168.5 1078.67 1166.5 1081.27 1166.5H1154.57C1198.97 1166.5 1243.37 1166.5 1287.67 1166.5H1355.67C1358.07 1166.5 1360.17 1168.5 1360.17 1170.9V1171.4C1360.17 1173.8 1358.17 1175.8 1355.67 1175.8H1259.17L1285.77 1224.6C1304.67 1259.4 1323.57 1294.1 1342.57 1328.9L1373.87 1386.3C1374.97 1388.3 1374.07 1390.9 1371.97 1392.1L1371.57 1392.3C1369.47 1393.4 1366.77 1392.8 1365.77 1390.9L1248.67 1175.8H1170.67L1053.57 1390.9C1052.57 1392.8 1049.87 1393.5 1047.77 1392.3L1047.37 1392.1C1045.27 1390.9 1044.37 1388.3 1045.47 1386.3L1076.77 1328.9C1095.67 1294.1 1114.57 1259.4 1133.57 1224.6L1160.17 1175.8ZM1076.87 1136.61V1078.47C1076.87 1034.12 1076.87 989.882 1076.87 945.639V892.8C1076.87 884.516 1083.59 877.8 1091.87 877.8H1255.07C1263.36 877.8 1270.07 884.516 1270.07 892.8V1136.78C1270.07 1145.07 1263.36 1151.78 1255.07 1151.78C1255.07 1151.78 1255.06 1151.78 1255.06 1151.78L1091.86 1151.61C1083.58 1151.6 1076.87 1144.89 1076.87 1136.61Z" fill="#D8DEED"/>
</g>
<g clip-path="url(#clip1)">
<path d="M1921.7 1171.61V1171.8C1921.7 1174.2 1919.6 1176.2 1917.2 1176.2H1841.7L1868.3 1225C1887.3 1259.8 1906.2 1294.5 1925.1 1329.3L1956.4 1386.7C1957.5 1388.7 1956.6 1391.3 1954.5 1392.5L1954.1 1392.7C1952 1393.9 1949.3 1393.2 1948.3 1391.3L1831.2 1176.2H1753.2L1636.1 1391.3C1635.1 1393.2 1632.4 1393.8 1630.3 1392.7L1629.9 1392.5C1627.8 1391.3 1626.9 1388.7 1628 1386.7L1659.3 1329.3C1678.3 1294.5 1697.2 1259.8 1716.1 1225L1742.7 1176.2H1642.6C1640.1 1176.2 1638.1 1174.2 1638.1 1171.8V1171.3C1638.1 1168.9 1640.2 1166.9 1642.6 1166.9H1710.6C1754.9 1166.9 1799.3 1166.9 1843.7 1166.9H1912.87L1921.3 1098.7C1927.1 1052.3 1932.8 1005.8 1938.6 959.3L1948.1 882.5C1948.4 879.8 1950.7 877.8 1953.2 878.1L1953.7 878.2C1956.1 878.5 1957.8 881 1957.5 883.5L1921.8 1171.1C1921.77 1171.27 1921.74 1171.45 1921.7 1171.61Z" fill="#D8DEED"/>
<path d="M1921.7 1171.61V1171.8C1921.7 1174.2 1919.6 1176.2 1917.2 1176.2H1841.7L1868.3 1225C1887.3 1259.8 1906.2 1294.5 1925.1 1329.3L1956.4 1386.7C1957.5 1388.7 1956.6 1391.3 1954.5 1392.5L1954.1 1392.7C1952 1393.9 1949.3 1393.2 1948.3 1391.3L1831.2 1176.2H1753.2L1636.1 1391.3C1635.1 1393.2 1632.4 1393.8 1630.3 1392.7L1629.9 1392.5C1627.8 1391.3 1626.9 1388.7 1628 1386.7L1659.3 1329.3C1678.3 1294.5 1697.2 1259.8 1716.1 1225L1742.7 1176.2H1642.6C1640.1 1176.2 1638.1 1174.2 1638.1 1171.8V1171.3C1638.1 1168.9 1640.2 1166.9 1642.6 1166.9H1710.6C1754.9 1166.9 1799.3 1166.9 1843.7 1166.9H1912.87L1921.3 1098.7C1927.1 1052.3 1932.8 1005.8 1938.6 959.3L1948.1 882.5C1948.4 879.8 1950.7 877.8 1953.2 878.1L1953.7 878.2C1956.1 878.5 1957.8 881 1957.5 883.5L1921.8 1171.1C1921.77 1171.28 1921.74 1171.45 1921.7 1171.61Z" fill="#D8DEED"/>
</g>
<path d="M1402.7 1393H1243.8C1241.3 1393 1239.3 1391 1239.3 1388.5C1239.3 1386 1241.3 1384 1243.8 1384H1402.7C1405.2 1384 1407.2 1386 1407.2 1388.5C1407.2 1391 1405.2 1393 1402.7 1393ZM1111.5 1393C1109 1393 1107 1391.27 1107 1389.19V1387.81C1107 1385.73 1109.1 1384 1111.5 1384H1214C1216.5 1384 1218.5 1385.73 1218.5 1387.81V1389.19C1218.5 1391.27 1216.4 1393 1214 1393H1111.5Z" fill="#A339FF"/>
<path d="M1404.27 1384.28C1403.78 1384.1 1403.25 1384 1402.7 1384H1243.8C1243.08 1384 1242.39 1384.17 1241.79 1384.47C1241.67 1384.03 1241.6 1383.58 1241.6 1383.1L1245.1 1327.8C1244.9 1324.8 1247.2 1322.5 1250.1 1322.4L1313.8 1322C1314.9 1322 1315.9 1322.3 1316.8 1323C1328.2 1335.2 1339.1 1342 1347 1346C1353.1 1349.1 1373.5 1357.7 1382.7 1361.9C1387.4 1364 1391.9 1366.5 1396.3 1369.2C1396.6 1369.4 1396.8 1369.5 1397.1 1369.8C1399.4 1371.9 1402.9 1375.7 1404.2 1380.2C1404.4 1380.8 1404.4 1381.3 1404.5 1381.9C1404.6 1382.4 1404.5 1382.9 1404.5 1383.4V1383.5C1404.44 1383.77 1404.37 1384.03 1404.27 1384.28ZM1214.58 1384.03C1214.39 1384.01 1214.2 1384 1214 1384H1111.5C1111.5 1384 1111.49 1384 1111.49 1384L1134.7 1322.1L1206.3 1331.8L1214.58 1384.03Z" fill="#474961"/>
<path d="M1240.03 1149.52C1236.57 1152.03 1233.56 1154.21 1230.99 1156.07L1229.7 1177.3C1229.1 1188.53 1228.4 1198.39 1227.6 1207.08C1227 1213.92 1219.3 1291.34 1216.5 1319.76C1215.9 1326.2 1211.6 1331.67 1205.7 1333.43C1196.8 1336.16 1130 1333.04 1127.5 1331.86C1124.3 1330.4 1122.6 1329.72 1120.9 1328.06C1114.9 1322.39 1115.3 1313.41 1115.2 1310.09C1114.6 1285 1112.8 1209.52 1112.8 1156.7C1112.8 1156.53 1112.8 1156.35 1112.8 1156.18C1106.21 1150.52 1100.38 1142.01 1095.82 1131.44C1088.88 1115.47 1084.64 1094.7 1084.53 1072.16C1084.53 1071.88 1084.53 1058.32 1084.53 1031.46C1084.53 1031.36 1084.53 1031.36 1084.53 1031.25C1084.64 1023.84 1091.7 1018 1100.05 1018H1192.36C1205.18 1018.42 1217.88 1018.83 1230.7 1019.25C1250.65 1019.78 1279.03 1020.55 1315.85 1021.58C1330.25 1021.98 1343.25 1030.28 1349.68 1043.17C1352.74 1049.31 1354.59 1054.36 1355.25 1058.31C1359.21 1065.3 1361.4 1073.47 1361.2 1082.18C1361.2 1082.37 1361.2 1082.47 1361.2 1082.66C1359.6 1162.84 1340.9 1277.06 1339.6 1315.69C1339.5 1317.15 1339.1 1320.37 1337 1323.78C1330.5 1334.22 1315.3 1331.88 1279.8 1332.75C1249.6 1333.54 1237.4 1335.88 1231.2 1327.29C1227.8 1322.61 1227.9 1317.25 1228 1314.81C1230.81 1259.28 1235.06 1203.17 1240.03 1149.52Z" fill="#474BFF"/>
<path opacity="0.176986" d="M1240 1149.89C1236.53 1152.4 1233.52 1154.58 1230.96 1156.43L1234.8 1093.04C1234.9 1088.65 1235.4 1062.09 1215.5 1045.2C1201 1032.99 1183.4 1032.21 1171.7 1031.72C1153.7 1030.94 1139.7 1036.02 1137 1037C1133.6 1038.26 1131.9 1038.95 1130.2 1039.83C1110.8 1049.98 1112.3 1098.8 1112.5 1107.69C1112.7 1118.74 1112.8 1135.86 1112.8 1155.77C1106.4 1150.11 1100.74 1141.75 1096.29 1131.44C1089.35 1115.47 1085.12 1094.7 1085 1072.16C1085 1071.88 1085 1058.32 1085 1031.46C1085 1031.36 1085 1031.36 1085 1031.25C1085.12 1023.84 1092.17 1018 1100.52 1018H1192.84C1205.65 1018.42 1218.35 1018.83 1231.17 1019.25C1251.12 1019.78 1279.51 1020.55 1316.32 1021.58C1330.72 1021.98 1343.73 1030.28 1350.15 1043.17C1353.52 1049.93 1355.43 1055.36 1355.89 1059.48C1348.27 1045.05 1333.25 1035.32 1316 1035.65C1307.6 1035.84 1299.3 1036.04 1290.9 1036.23C1268.4 1036.82 1249.7 1054.28 1247.3 1077.1C1244.76 1100.63 1242.3 1125 1240 1149.89Z" fill="#444444"/>
<path d="M1214.67 810.971C1222.5 811.114 1234.81 812.597 1246.97 819.665C1249.07 820.862 1252.16 822.857 1255.56 825.75C1258.45 828.244 1266.94 836.524 1275.02 859.867C1277.92 868.047 1286.41 884.009 1291.3 892.787C1292.9 895.68 1291 899.271 1287.6 899.571C1276.9 900.339 1263.71 904.73 1251.24 904.754C1252.26 923.415 1252.99 945.673 1253.26 970.499C1253.26 970.499 1254.86 1000.04 1245.67 1009.62C1244.08 1011.31 1214.26 1009.55 1182.58 1010.56C1148.61 1011.64 1112.42 1015.14 1103.99 1006.31C1090.38 992.037 1098.16 988.17 1110.66 906.852C1108.7 907.053 1106.88 907.231 1105.26 907.379C1092.63 908.579 1066.19 907.779 1053.47 907.279C1050.09 907.179 1047.91 903.38 1049.3 900.18C1053.47 890.482 1060.83 872.984 1063.01 864.085C1069.28 838.689 1077.13 829.39 1079.81 826.59C1082.89 823.391 1085.98 821.214 1087.86 819.691C1094.15 814.588 1114 810.906 1147.4 808.645C1161.79 803.742 1178.23 805.15 1188.87 806.098C1196.31 806.773 1205.69 807.608 1214.67 810.971Z" fill="#A339FF"/>
<path opacity="0.176986" d="M1215 811C1222.86 811.257 1234.65 812.911 1246.3 819.688C1248.4 820.888 1251.5 822.888 1254.9 825.788C1257.8 828.288 1266.3 836.588 1274.4 859.988C1277.3 868.188 1286.4 883.971 1291.3 892.771C1292.9 895.671 1291 899.271 1287.6 899.571C1284.48 899.795 1280.96 900.447 1277.62 901C1276.29 901.219 1272.63 901.645 1271 901.988C1263.12 903.651 1258.53 904.754 1251.18 904.754C1251.14 904.754 1251.11 904.754 1251.07 904.754C1249.49 875.979 1247.19 855.743 1244.7 847.805C1243 842.405 1240.54 836.206 1240.54 836.206C1239.34 832.706 1237.4 829.105 1233.5 824.205C1228.24 817.676 1221.75 813.61 1215 811V811ZM1191.46 821.663C1189.66 832.263 1186.36 835.392 1186.36 835.392C1178.76 830.992 1151.66 817.263 1154.16 809.763C1154.36 809.263 1154.76 808.263 1157.36 806.663C1167.16 800.663 1179.16 803.563 1183.36 804.763C1183.36 804.763 1202.66 802.563 1206.36 813.863C1210.06 825.163 1205.66 833.163 1205.66 833.163C1202.46 831.229 1197.73 827.396 1191.46 821.663Z" fill="#444444"/>
<path d="M1253.14 985.353L1251.18 904.754L1277.68 901L1285.77 999.831C1286.47 1000.19 1287.14 1000.55 1287.8 1000.9C1293.53 1003.97 1298.28 1009.56 1302.05 1017.67C1302.24 1018.08 1302.33 1018.53 1302.32 1018.98C1302.3 1020.64 1300.94 1021.96 1299.28 1021.94L1088.7 1018.89C1038.42 1008.92 1052.1 940.73 1061.94 907.597C1075.76 908.029 1095.27 908.376 1105.6 907.4C1115.36 906.513 1132.3 904.557 1142.27 903.065L1124.4 956.6C1172.38 958.981 1219.5 972.347 1253.14 985.353ZM1197.05 798.254L1196.6 816.7C1177.47 823.755 1163.9 812.9 1163.9 812.9C1163.9 812.9 1164.62 799.152 1166.05 771.657C1165.82 771.159 1165.6 770.633 1165.38 770.075C1163.58 765.575 1157.1 750.801 1158.5 745.701C1158.76 744.624 1153.41 728.596 1161.24 720.512C1168.67 712.834 1189.27 713.051 1190.1 713.1C1193.6 713.2 1197.1 713.1 1200.9 712.3C1201.3 712.3 1201.7 712.2 1202.1 712.2C1205.5 711.9 1224.6 711 1234.4 725.2C1235.3 726.4 1236.1 727.7 1236.8 729.3C1238.3 733 1239 737 1238.7 741L1237.3 758.8C1237.1 760.6 1236.8 762.4 1236.4 764.1C1233.5 776.7 1228.8 787 1223.8 793.5C1220.1 798.4 1216.1 801.2 1212.6 801.3C1211.6 801.4 1206.2 801.3 1199.9 799.4C1199.49 799.263 1199.59 799.36 1197.05 798.254Z" fill="#F2A98A"/>
<path d="M1144.78 902.898C1144.45 903.658 1143.56 904.006 1142.8 903.676C1142.04 903.345 1141.69 902.462 1142.02 901.702C1143.96 897.249 1144.74 894.761 1146.24 888.263C1146.42 887.455 1147.23 886.952 1148.04 887.138C1148.84 887.325 1149.35 888.13 1149.16 888.937C1147.62 895.603 1146.79 898.261 1144.78 902.898ZM1125.46 954.507C1126.28 954.429 1127.02 955.034 1127.09 955.859C1127.17 956.684 1126.57 957.415 1125.74 957.493C1125.55 957.512 1125.16 957.555 1124.62 957.627C1123.71 957.749 1122.7 957.909 1121.6 958.114C1118.48 958.696 1115.35 959.509 1112.45 960.584C1110.74 961.219 1109.15 961.928 1107.72 962.714C1107 963.113 1106.08 962.849 1105.69 962.123C1105.29 961.397 1105.55 960.485 1106.28 960.086C1107.84 959.224 1109.56 958.455 1111.41 957.771C1114.49 956.63 1117.77 955.776 1121.05 955.164C1122.2 954.95 1123.27 954.782 1124.23 954.654C1124.56 954.608 1124.86 954.571 1125.12 954.542C1125.28 954.524 1125.4 954.512 1125.46 954.507Z" fill="#482D1F"/>
<path opacity="0.2" d="M1285.6 999.934C1277.35 995.62 1266.21 990.546 1252.96 985.41L1251 904.754L1277.5 901L1285.6 999.934Z" fill="#8C2A00"/>
<path d="M1197.08 798.282L1196.8 808.5L1182.99 791.932C1183.19 792.029 1183.39 792.128 1183.6 792.229C1185.6 793.229 1188.1 794.329 1191.3 795.729C1194.1 796.978 1195.9 797.772 1197.08 798.282Z" fill="#482D1F"/>
<path d="M1185.99 750.723L1185.9 748.8C1185.9 748.8 1185.5 745.2 1183 741.6C1182.8 741.4 1181.1 739.2 1178.5 738.1C1173.8 736.3 1167.6 738.4 1164.2 742.7C1160.6 747.1 1160.6 753 1162.5 757.5C1164.4 762 1168.1 764.1 1169.4 764.7L1175.2 766.5L1175.23 766.489C1170.16 773.921 1165.74 780.399 1165.74 780.399C1165.74 780.399 1157.4 772.7 1153.7 766.6C1151.9 763.6 1145.5 756.3 1144.4 744.8C1144.1 741 1142.9 728.1 1151.5 718.6C1154.5 715.3 1157.9 713.7 1159.3 713C1167.2 709.5 1173 711.6 1188.2 711.9C1189.4 711.9 1191.4 712 1194 711.9C1198.7 711.8 1202 711.6 1202.9 711.6C1210.4 711.3 1226.7 713.6 1233.9 724.7C1234.3 725.5 1234.8 726.2 1235.2 726.8C1233.1 727.5 1230.8 728.8 1228 729.3C1220.4 730.5 1213.9 729 1210 727.6C1202.4 734.8 1194.7 741.9 1187.1 749.1C1186.75 749.607 1186.38 750.15 1185.99 750.723Z" fill="#DE6903"/>
<path d="M1231.53 761.928C1231.83 760.728 1233.03 759.828 1234.23 760.028C1235.03 760.128 1235.63 760.728 1235.93 762.128C1236.23 765.628 1232.43 770.028 1231.33 767.928C1230.63 766.528 1231.23 763.628 1231.53 761.928ZM1210.4 759.2C1210.7 758 1211.9 757.1 1213.1 757.3C1213.9 757.4 1214.5 758 1214.8 759.4C1215.1 762.9 1211.3 767.3 1210.2 765.2C1209.4 763.8 1210 760.9 1210.4 759.2Z" fill="#482D1F"/>
<path d="M1224.7 762.61L1224.8 772.61C1224.8 772.648 1224.65 772.8 1224.6 772.8C1224.05 772.8 1223.49 772.764 1222.62 772.68C1222.45 772.663 1222.27 772.645 1222.02 772.619C1221.7 772.587 1221.52 772.569 1221.35 772.552C1220.78 772.494 1220.3 772.448 1219.79 772.404C1219.24 772.356 1218.75 772.763 1218.7 773.313C1218.66 773.863 1219.06 774.348 1219.61 774.396C1220.11 774.44 1220.58 774.484 1221.15 774.542C1221.32 774.559 1221.5 774.576 1221.82 774.609C1222.08 774.635 1222.26 774.653 1222.43 774.67C1223.36 774.76 1223.98 774.8 1224.6 774.8C1225.75 774.8 1226.8 773.752 1226.8 772.6L1226.7 762.59C1226.69 762.038 1226.24 761.594 1225.69 761.6C1225.14 761.605 1224.69 762.058 1224.7 762.61Z" fill="#482D1F"/>
<path d="M1217.7 780.1C1217 779.8 1215.3 779 1215.2 778C1215.2 777.8 1215.1 777.5 1215.3 777.4C1215.8 776.9 1217 777.4 1218.8 777.9C1222 778.7 1224.6 778.9 1224.6 778.9C1224.6 778.9 1223.6 780.5 1223 780.9C1221.8 782 1218.7 780.6 1217.7 780.1Z" fill="#482D1F"/>
<path d="M1222.14 763.705C1220.54 769.802 1215 774.3 1208.4 774.3C1200.56 774.3 1194.2 767.942 1194.2 760.1C1194.2 758.361 1194.51 756.696 1195.08 755.156L1187.16 751.742C1186.37 751.496 1185.92 750.655 1186.17 749.864C1186.42 749.073 1187.26 748.631 1188.05 748.877L1196.42 752.481C1198.94 748.524 1203.36 745.9 1208.4 745.9C1216.24 745.9 1222.6 752.257 1222.6 760.1C1222.6 760.313 1222.6 760.525 1222.59 760.735L1225.71 761.058C1227.06 754.627 1232.77 749.8 1239.6 749.8C1247.44 749.8 1253.8 756.157 1253.8 764C1253.8 771.842 1247.44 778.2 1239.6 778.2C1231.77 778.2 1225.42 771.865 1225.4 764.042L1222.14 763.705ZM1198.25 755.369C1197.57 756.806 1197.2 758.409 1197.2 760.1C1197.2 766.285 1202.21 771.3 1208.4 771.3C1214.59 771.3 1219.6 766.285 1219.6 760.1C1219.6 753.914 1214.59 748.9 1208.4 748.9C1204.15 748.9 1200.46 751.264 1198.56 754.748C1198.55 754.78 1198.54 754.813 1198.53 754.845C1198.47 755.044 1198.37 755.22 1198.25 755.369ZM1228.43 763.148C1228.41 763.429 1228.4 763.713 1228.4 764C1228.4 770.185 1233.41 775.2 1239.6 775.2C1245.79 775.2 1250.8 770.185 1250.8 764C1250.8 757.814 1245.79 752.8 1239.6 752.8C1233.91 752.8 1229.2 757.05 1228.49 762.551C1228.5 762.65 1228.5 762.751 1228.49 762.854C1228.48 762.956 1228.46 763.054 1228.43 763.148Z" fill="#482D1F"/>
<path d="M561.834 1173.54V1173.73C561.834 1176.13 563.934 1178.13 566.334 1178.13H641.835L615.234 1226.93C596.234 1261.73 577.334 1296.43 558.434 1331.23L527.134 1388.63C526.034 1390.63 526.934 1393.23 529.034 1394.43L529.434 1394.63C531.534 1395.83 534.234 1395.13 535.234 1393.23L652.334 1178.13H730.334L847.434 1393.23C848.434 1395.13 851.134 1395.73 853.234 1394.63L853.634 1394.43C855.734 1393.23 856.634 1390.63 855.534 1388.63L824.234 1331.23C805.234 1296.43 786.334 1261.73 767.434 1226.93L740.832 1178.13H840.934C843.434 1178.13 845.434 1176.13 845.434 1173.73V1173.23C845.434 1170.83 843.334 1168.83 840.934 1168.83H772.934C728.634 1168.83 684.234 1168.83 639.834 1168.83H570.663L562.234 1100.63C556.434 1054.23 550.734 1007.73 544.934 961.23L535.434 884.43C535.134 881.73 532.834 879.73 530.334 880.03L529.834 880.13C527.434 880.43 525.734 882.93 526.034 885.43L561.734 1173.03C561.76 1173.2 561.793 1173.38 561.834 1173.54Z" fill="#D8DEED"/>
<g clip-path="url(#clip2)">
<path d="M1600.45 1384H1738.4C1740.9 1384 1742.9 1386 1742.9 1388.5C1742.9 1391 1740.9 1393 1738.4 1393H1579.5H1462.5C1460 1393 1458 1391 1458 1388.5C1458 1386 1460 1384 1462.5 1384H1600.45Z" fill="#FF5645"/>
<path d="M1463.5 1384H1462.5C1462.21 1384 1461.93 1384.03 1461.65 1384.08C1461.37 1383.6 1461.16 1383.07 1461.04 1382.5V1382.4C1461.04 1381.9 1460.94 1381.4 1461.04 1380.9C1461.14 1380.3 1461.14 1379.8 1461.34 1379.2C1462.01 1376.88 1463.74 1374.16 1466.52 1371.05C1468.1 1369.28 1469.96 1367.77 1472.02 1366.6C1476.61 1363.97 1480.22 1362.07 1482.84 1360.9C1492.04 1356.7 1512.44 1348.1 1518.54 1345C1526.44 1341 1537.34 1334.2 1548.74 1322C1549.64 1321.3 1550.64 1321 1551.74 1321L1609.1 1321.4C1612 1321.4 1614.3 1323.8 1614.1 1326.8L1618.92 1353.89C1624 1351.69 1628.57 1349.57 1634.2 1346.3C1638.9 1343.6 1645.5 1339.2 1652.9 1332.6C1657 1329 1661.2 1325.4 1665.3 1321.8L1727.2 1321L1739.93 1384.1C1740.15 1384.14 1740.37 1384.2 1740.57 1384.28L1740.63 1384.59C1740 1384.22 1739.26 1384.01 1738.48 1384C1738.45 1384 1738.43 1384 1738.4 1384H1600.45H1577.51H1463.5Z" fill="#474961"/>
<path opacity="0.176986" d="M1600.75 1384H1600.45H1462.5C1462.21 1384 1461.93 1384.03 1461.65 1384.08C1461.37 1383.6 1461.16 1383.07 1461.04 1382.5V1382.4C1461.04 1381.9 1460.94 1381.4 1461.04 1380.9C1461.14 1380.3 1461.14 1379.8 1461.34 1379.2C1462.01 1376.88 1463.74 1374.16 1466.52 1371.05C1468.1 1369.28 1469.96 1367.77 1472.02 1366.6C1476.61 1363.97 1480.22 1362.07 1482.84 1360.9C1492.04 1356.7 1512.44 1348.1 1518.54 1345C1526.44 1341 1537.34 1334.2 1548.74 1322C1549.64 1321.3 1550.64 1321 1551.74 1321L1609.1 1321.4C1612 1321.4 1614.3 1323.8 1614.1 1326.8L1618.96 1354.13C1613.64 1356.42 1607.71 1358.84 1599.4 1362.8C1594.6 1365.1 1590 1367.7 1585.5 1370.6C1583.3 1372.6 1579.5 1376.7 1578.3 1381.5C1578.1 1382.3 1578.1 1383.1 1578 1383.8C1578 1383.87 1578.04 1383.93 1578.11 1384H1601.05H1600.75ZM1740.63 1384.59C1740 1384.22 1739.26 1384.01 1738.48 1384L1739 1384C1739.55 1384 1740.08 1384.1 1740.57 1384.28L1740.63 1384.59Z" fill="#474961"/>
<path d="M1596.61 1021.17C1598.33 1020.89 1599.96 1020.8 1601.5 1020.9L1784.4 1020.2L1868.2 1020C1871.6 1020.2 1885.94 1024.59 1889.24 1028.35C1892.44 1030.05 1912.9 1051.2 1909.5 1090.5C1908.9 1097.1 1907.6 1111.8 1899.2 1125.8C1890.4 1140.4 1875.6 1151.1 1857.5 1157.2C1841.5 1162.6 1822.8 1164.5 1803.4 1162.4C1762.4 1155 1721.5 1147.7 1680.5 1140.3V1141.8L1680.7 1142.5C1680.7 1142.5 1685.7 1151.9 1690 1161.6C1694.3 1171.2 1700.3 1216.6 1700.3 1216.9C1710.1 1232.5 1720 1253.6 1727.6 1280.2C1730.6 1290.9 1732.2 1299.3 1732.8 1302.5C1734.01 1309.36 1734.97 1317.65 1735.68 1327.36C1735.69 1327.51 1735.69 1327.65 1735.69 1327.8C1735.69 1331.11 1733.01 1333.8 1729.69 1333.8C1728.72 1333.8 1727.96 1333.8 1727.4 1333.8L1638.5 1333.7L1611.16 1333.56C1610.25 1333.81 1609.29 1333.93 1608.3 1333.93L1535.3 1333.63H1529.4C1523.6 1333.63 1518.7 1329.03 1518.4 1323.23C1517.7 1311.53 1516.8 1296.13 1515.7 1278.33C1512.7 1233.43 1511.1 1219.13 1509.3 1184.53C1509 1178.73 1508.7 1173.53 1508.5 1168.63C1507.7 1145.33 1505.6 1123.53 1501.5 1095.03C1499.2 1079.23 1498.1 1069.43 1498 1061.13C1497.9 1053.43 1500.2 1045.83 1504.6 1039.53C1506.8 1036.43 1509.3 1033.73 1512.3 1031.43C1520 1025.53 1525.52 1021.52 1544.84 1021.23C1560.12 1021.01 1577.81 1021.08 1596.61 1021.17Z" fill="#F50041"/>
<path opacity="0.176986" d="M1597.15 1021.09C1596.9 1021.12 1596.65 1021.16 1596.4 1021.2C1589.4 1022.4 1581.5 1026.5 1575.4 1031.2C1572.4 1033.5 1569.8 1036.2 1567.7 1039.3C1563.3 1045.5 1561 1052.9 1561 1060.5V1061C1561.1 1069.3 1562.2 1079.1 1564.4 1094.9C1568.5 1123.4 1570.6 1145.1 1571.4 1168.5C1571.6 1173.3 1571.9 1178.6 1572.2 1184.4C1573.9 1218.9 1575.6 1233.2 1578.6 1278.2C1579.8 1296 1580.7 1311.3 1581.3 1323.1C1581.6 1328.9 1586.5 1333.5 1592.3 1333.5H1598.2L1610.83 1333.56C1610.02 1333.75 1609.17 1333.85 1608.3 1333.85L1535.3 1333.55H1529.4C1523.6 1333.55 1518.7 1328.95 1518.4 1323.15C1517.7 1311.45 1516.8 1296.05 1515.7 1278.25C1512.7 1233.35 1511.1 1219.05 1509.3 1184.45C1509 1178.65 1508.7 1173.45 1508.5 1168.55C1507.7 1145.25 1505.6 1123.45 1501.5 1094.95C1499.2 1079.15 1498.1 1069.35 1498 1061.05C1497.9 1053.35 1500.2 1045.75 1504.6 1039.45C1506.8 1036.35 1509.3 1033.65 1512.3 1031.35C1520 1025.45 1525.52 1021.44 1544.84 1021.15C1560.27 1020.92 1578.14 1021 1597.15 1021.09L1597.15 1021.09Z" fill="#444444"/>
<path d="M1680 1138.07C1678.76 1136.85 1677.47 1135.58 1676.12 1134.24C1675.75 1133.88 1675.75 1133.88 1675.39 1133.52C1671.58 1129.74 1668.46 1126.63 1662.41 1120.59C1661.63 1119.8 1660.37 1119.8 1659.59 1120.59C1658.8 1121.37 1658.8 1122.63 1659.59 1123.41C1665.63 1129.46 1668.76 1132.58 1672.57 1136.36C1672.94 1136.72 1672.94 1136.72 1673.3 1137.08C1674.66 1138.42 1675.95 1139.7 1677.2 1140.93C1677.99 1141.7 1679.25 1141.69 1680.03 1140.9C1680.8 1140.12 1680.79 1138.85 1680 1138.07Z" fill="#482D1F"/>
<path d="M1811.28 813.659C1817.17 811.66 1823.58 810.72 1830.25 811.073C1856.75 812.373 1877.15 833.473 1875.85 858.173C1875.21 870.249 1869.46 880.951 1860.66 888.553L1882.8 969.5C1886.2 982.3 1885 995.3 1880 1006.5C1879.3 1008.1 1878.5 1009.7 1877.7 1011.2C1876.8 1012.8 1875.8 1014.4 1874.8 1015.9C1873.7 1017.5 1872.5 1019.1 1871.2 1020.6H1762.3C1761.4 1019.1 1760.5 1017.6 1759.7 1015.9C1758.9 1014.4 1758.2 1012.8 1757.6 1011.2C1757 1009.7 1756.5 1008.1 1756 1006.5C1755.9 1006.2 1755.8 1005.9 1755.7 1005.6L1727.39 906.917L1706.73 909.192C1704.93 909.392 1703.23 908.192 1703.03 906.492L1702.13 899.492C1702.09 899.179 1702.11 898.873 1702.17 898.58C1698.77 896.517 1695.66 894.041 1693.03 891.192C1689.23 887.092 1686.33 882.292 1684.63 876.792C1677.83 854.992 1692.93 831.692 1718.33 824.892C1728.55 822.155 1738.91 822.48 1748.07 825.267C1751.96 822.567 1756.22 820.489 1760.8 819.2L1782.7 812.7C1792.78 811.205 1802.48 811.551 1811.28 813.659V813.659Z" fill="#27AE60"/>
<path opacity="0.176986" d="M1727.24 906.934L1706.73 909.192C1704.93 909.392 1703.23 908.192 1703.03 906.492L1702.13 899.492C1702.09 899.179 1702.11 898.873 1702.17 898.58C1698.77 896.517 1695.66 894.041 1693.03 891.192C1689.23 887.092 1686.33 882.292 1684.63 876.792C1677.83 854.992 1692.93 831.692 1718.33 824.892C1728.61 822.14 1739.02 822.484 1748.22 825.314C1727.53 839.494 1717.27 871.282 1724.11 896.016L1727.24 906.934Z" fill="#444444"/>
<path d="M1709.9 829.3C1709.9 829.3 1708 836.9 1718.1 834.8C1728.2 832.7 1731.1 831.7 1731.1 831.7L1728.5 824.8L1709.9 829.3Z" fill="#482D1F"/>
<path d="M1744.72 809.447C1744.39 809.535 1744.07 809.618 1743.74 809.696L1744.77 809.548L1744.72 809.447ZM1771.49 793.314L1774 792.3L1786.1 813.2L1766.15 819.448L1785.7 912.3C1785.7 912.3 1787.36 905.599 1789.49 893.515C1789.59 893.548 1789.69 893.576 1789.8 893.6L1845.1 905.9C1845.33 905.952 1845.57 905.978 1845.8 905.982C1843.86 913.705 1841.8 922.992 1839.6 932.6C1833.9 957.4 1833 968.9 1823.9 985.3C1813.5 1004 1803.9 1004.5 1800.1 1005.9C1791.6 1009.2 1783.1 1008.7 1777.8 1007.4C1771.44 1005.86 1759.79 1003.38 1749.91 985.408L1755.7 1005.6C1755.8 1005.9 1755.9 1006.2 1756 1006.5C1756.5 1008.1 1757 1009.7 1757.6 1011.2C1758.2 1012.8 1758.9 1014.4 1759.7 1015.9C1760.5 1017.6 1761.4 1019.1 1762.3 1020.6H1775.11L1609.14 1020.81C1608.67 1020.81 1608.25 1020.65 1607.91 1020.39C1580.38 1003.75 1566.75 991.056 1567.01 982.295C1575.33 981.028 1587.22 979.288 1602.66 977.077C1612.25 975.703 1621.99 975.731 1631.58 977.16L1661.72 981.653C1684.27 974.425 1714.36 964.932 1721.88 963.296L1708.97 908.945L1727.39 906.917L1736.05 937.099C1730.99 901.361 1732.3 864.122 1727.73 828.27L1717.2 828.5C1711 831 1698 835.2 1696.6 826.3C1696.6 826.3 1713.8 819.2 1725.9 814L1726.8 813.2C1727.6 812.5 1728.3 812.1 1729.3 811.8C1729.5 811.7 1729.7 811.7 1729.9 811.7L1734.7 811L1735.37 810.903C1733.78 810.981 1732.67 810.94 1732.27 810.9C1723.91 810.3 1714.17 795 1709.79 772.9C1709.39 771.1 1709.3 769.3 1709.1 767.5L1708.3 749.6C1708.1 745.6 1708.9 741.6 1710.79 738.1C1711.58 736.6 1712.38 735.2 1713.27 734.1C1723.52 720.3 1742.41 721.8 1745.79 722.2C1746.19 722.2 1746.59 722.3 1746.98 722.3C1750.76 723.2 1754.14 723.5 1757.72 723.4C1759.32 723.4 1760.61 724.7 1760.71 726.3L1761.21 751.9C1761.3 754.3 1773.44 749.7 1773.44 749.6C1779.26 745.2 1786.56 768.9 1783.58 772.4C1781.39 774.8 1775.23 778.2 1773.44 778.8C1772.34 779.2 1771.55 780.1 1771.35 781.1C1772.03 786.165 1772.08 790.236 1771.49 793.314Z" fill="#DB9E75"/>
<path opacity="0.2" d="M1708.97 909.028L1727.39 907L1755.7 1005.68C1755.8 1005.98 1755.9 1006.28 1756 1006.58C1756.5 1008.18 1757 1009.78 1757.6 1011.28C1758.2 1012.88 1758.9 1014.48 1759.7 1015.98C1760.5 1017.68 1761.4 1019.18 1762.3 1020.68H1775.11L1609.14 1020.89C1608.67 1020.89 1608.24 1020.73 1607.9 1020.47C1580.38 1003.84 1566.74 991.139 1567 982.378C1575.33 981.111 1587.21 979.371 1602.65 977.16C1612.25 975.786 1621.99 975.813 1631.58 977.242L1661.72 981.736C1684.27 974.508 1714.36 965.015 1721.87 963.379L1708.97 909.028Z" fill="#8C2A00"/>
<path d="M1562.48 995.959C1573.21 982.75 1595.3 972.053 1632.28 996.69C1637.92 1000.32 1636.01 1012.22 1629.8 1012.36L1565.88 1013.43C1561.07 1013.59 1558.9 1000.4 1562.48 995.959Z" fill="#474961"/>
<path d="M1802.21 746.233C1815.03 754.654 1827.28 767.029 1825.1 775.2C1823.4 781.8 1817 785.3 1810.5 788.9C1805.25 791.779 1795.56 796.235 1781.6 797.169C1781.6 797.179 1781.6 797.19 1781.6 797.2C1778.3 797.7 1775.1 798.2 1771.8 798.7C1770.1 798.9 1768.5 797.7 1768.4 796C1768.9 792.4 1769.4 788.8 1769.9 785.2C1770.35 783.404 1770.82 781.135 1771.11 778.704C1772.71 778.318 1776.27 777.287 1779 774.1C1782 770.6 1783.6 765.3 1781.6 760.2C1779.8 755.3 1774.8 751.5 1770 751.9C1767.3 752.1 1765.2 753.6 1764.9 753.8C1762.73 755.443 1760.93 757.691 1759.94 759.039C1755.24 757.213 1747.93 753.313 1741.9 745.6C1740.5 743.867 1738.87 741.3 1737 737.9C1727.04 740.159 1718.67 739.593 1711.9 736.2C1713.38 733.384 1715.69 730.837 1718.82 728.559C1723.52 725.142 1724.03 724.729 1729.96 723.064C1733.67 722.022 1740.69 721.69 1745.72 722.2H1745.9C1751.6 722.8 1756.3 723 1759.4 723C1774.6 723.3 1780.5 721.3 1788.2 725.1C1789.6 725.8 1792.9 727.6 1795.8 731C1799.91 735.803 1801.59 741.366 1802.21 746.233ZM1711.62 780.62C1715.41 794.127 1719.43 799.099 1718.92 799.099C1718.41 799.099 1717.08 799.8 1706.78 796.9C1701.68 795.5 1696.88 794.1 1694.68 790C1691.58 784.2 1700.82 772.217 1709.02 764.217C1709.02 770.139 1710 774.605 1711.62 780.62ZM1705.6 760.8C1704.6 760.6 1704.2 759.4 1704.9 758.7C1705.8 757.9 1707.3 756.9 1709.3 756.8C1713.4 756.6 1717.9 759 1713.5 760.4C1710.7 761.4 1707.5 761.1 1705.6 760.8ZM1725 760.8C1724 760.6 1723.6 759.4 1724.4 758.7C1725.3 757.9 1726.8 756.9 1728.9 756.8C1733 756.6 1737.5 759.1 1733.1 760.4C1730.1 761.4 1727 761.1 1725 760.8Z" fill="#482D1F"/>
<path d="M1713.1 768.5C1713.3 770.2 1713.5 773 1712.6 774.2C1711.3 776 1708.2 771.4 1708.9 768.2C1709.2 766.8 1709.9 766.4 1710.7 766.4C1711.9 766.4 1712.9 767.3 1713.1 768.5ZM1730.9 767.9C1731.2 769.6 1731.4 772.4 1730.4 773.6C1729.1 775.4 1726 770.8 1726.7 767.6C1727 766.2 1727.7 765.8 1728.5 765.8C1729.7 765.8 1730.7 766.7 1730.9 767.9Z" fill="#482D1F"/>
<path d="M1784.56 912.825C1784.33 912.031 1784.78 911.196 1785.58 910.962C1786.37 910.727 1787.2 911.181 1787.44 911.975L1797.34 945.475C1797.57 946.269 1797.12 947.104 1796.33 947.339C1795.53 947.573 1794.7 947.12 1794.46 946.325L1784.56 912.825ZM1852.29 895.587C1852.31 895.763 1852.3 895.947 1852.26 896.132L1850.56 903.625C1849.99 906.232 1847.39 907.845 1844.77 907.264C1843.97 907.085 1843.46 906.283 1843.64 905.475C1843.82 904.666 1844.62 904.156 1845.43 904.336C1846.43 904.56 1847.42 903.949 1847.64 902.969L1849.1 896.526C1848.83 896.384 1848.6 896.162 1848.46 895.871C1848.09 895.13 1848.39 894.229 1849.13 893.858C1853.4 891.723 1857.37 888.911 1860.76 885.624C1861.35 885.047 1862.3 885.061 1862.88 885.655C1863.45 886.249 1863.44 887.199 1862.85 887.776C1859.72 890.807 1856.14 893.456 1852.29 895.587ZM1790.49 882.23C1790.49 882.297 1790.48 882.364 1790.46 882.432L1788.76 889.925C1788.54 890.934 1789.15 891.919 1790.13 892.136C1790.93 892.316 1791.44 893.117 1791.26 893.925C1791.08 894.734 1790.28 895.244 1789.47 895.064C1786.87 894.485 1785.26 891.886 1785.84 889.269L1787.54 881.769C1787.6 881.478 1787.75 881.226 1787.95 881.032C1786.77 879.606 1785.88 878.355 1785.14 877.085C1784.47 875.945 1783.92 874.777 1783.33 873.316C1782.93 872.321 1782.68 871.652 1781.79 869.213C1781.51 868.434 1781.91 867.574 1782.69 867.29C1783.47 867.007 1784.33 867.409 1784.61 868.187C1785.48 870.588 1785.73 871.244 1786.11 872.193C1786.65 873.528 1787.14 874.569 1787.73 875.573C1788.51 876.916 1789.5 878.26 1790.94 879.92C1791.48 880.547 1791.41 881.494 1790.78 882.035C1790.69 882.113 1790.6 882.177 1790.49 882.23ZM1751.69 807.715C1747.99 809.415 1745.47 812.422 1739.7 813C1735.1 814.1 1731.2 812.8 1729.2 811.8C1729.4 811.7 1729.6 811.7 1729.8 811.7L1734.6 811C1736.9 811 1740.6 810.6 1744.9 809.4L1751.69 807.715Z" fill="#482D1F"/>
<path d="M1725.8 788.1C1726.5 787.9 1728.2 787.3 1728.5 786.2C1728.5 786 1728.6 785.7 1728.5 785.5C1728.1 784.9 1726.8 785.2 1725 785.4C1721.8 785.7 1719.2 785.4 1719.2 785.4C1719.2 785.4 1720 787.4 1720.5 787.9C1721.6 789.5 1724.8 788.5 1725.8 788.1Z" fill="#482D1F"/>
<path d="M1718.3 769.334L1718.31 769.189L1718.3 769.261L1718.3 769.334ZM1717.11 779.889L1717.1 780C1717.1 781.091 1717.85 782.105 1718.94 782.286C1719.14 782.306 1719.25 782.314 1719.36 782.321C1720.42 782.39 1721.18 782.4 1723.9 782.4C1724.45 782.4 1724.9 781.952 1724.9 781.4C1724.9 780.848 1724.45 780.4 1723.9 780.4C1721.22 780.4 1720.49 780.39 1719.49 780.325C1719.39 780.318 1719.28 780.311 1719.18 780.303C1719.2 780.303 1719.12 780.187 1719.1 780.039L1720.29 769.411L1720.3 769.266L1720.1 763.366C1720.08 762.814 1719.62 762.382 1719.07 762.401C1718.51 762.419 1718.08 762.882 1718.1 763.434L1718.3 769.261L1717.11 779.889Z" fill="#482D1F"/>
</g>
<path d="M708.992 1394.1C708.893 1394.04 708.795 1393.97 708.7 1393.9L608.3 1319.1C606.3 1317.6 605.9 1314.7 607.4 1312.7C608.9 1310.7 611.8 1310.3 613.8 1311.8L713.126 1385.8H767.2C769.7 1385.8 771.8 1387.9 771.8 1390.4C771.8 1392.9 769.7 1395 767.2 1395H711.7C710.683 1395 709.749 1394.67 708.992 1394.1ZM1028.7 1395H869.8C867.3 1395 865.3 1393 865.3 1390.5C865.3 1388 867.3 1386 869.8 1386H1028.7C1031.2 1386 1033.2 1388 1033.2 1390.5C1033.2 1393 1031.2 1395 1028.7 1395Z" fill="#DE3190"/>
<path d="M1029.71 1386.36C1029.24 1386.2 1028.74 1386.11 1028.21 1386.11H869.308C868.888 1386.11 868.483 1386.16 868.099 1386.27C867.779 1385.62 867.6 1384.88 867.6 1384.1L866.1 1328.8C865.9 1325.8 868.2 1323.5 871.1 1323.4L939.8 1323C940.9 1323 941.9 1323.3 942.8 1324C954.2 1336.2 965.1 1343 973 1347C979.1 1350.1 999.5 1358.7 1008.7 1362.9C1013.4 1365 1017.9 1367.5 1022.3 1370.2C1022.6 1370.4 1022.8 1370.5 1023.1 1370.8C1025.4 1372.9 1028.9 1376.7 1030.2 1381.2C1030.4 1381.8 1030.4 1382.3 1030.5 1382.9C1030.6 1383.4 1030.5 1383.9 1030.5 1384.4V1384.5C1030.36 1385.19 1030.08 1385.81 1029.71 1386.36ZM768.731 1386.39C768.117 1386.08 767.429 1385.91 766.708 1385.91H712.634L613.685 1312.19L651 1259.3L711.2 1303C714.5 1314.2 717.9 1325.4 721.3 1336.7C723.1 1342.6 724.9 1348.4 726.7 1354.2C732.3 1356.4 737.1 1358.4 740.5 1359.9C747 1362.7 752.5 1365.3 758.5 1369.2C758.5 1369.2 763.7 1372.4 766.6 1377C767.5 1378.5 768.3 1380.2 768.8 1382C769 1382.8 769 1383.6 769.1 1384.3C769.069 1384.96 768.92 1385.69 768.731 1386.39Z" fill="#444444"/>
<path d="M895.348 1023.39L922.66 1023.03C930.86 1022.53 941.16 1027.63 948.86 1033.43C950.46 1034.63 951.86 1035.93 953.16 1037.33C954.36 1038.63 955.56 1040.03 956.56 1041.53C960.96 1047.83 963.26 1055.33 963.16 1063.03C962.96 1079.73 960.96 1092.73 959.66 1097.03C951.16 1123.33 929.36 1222.03 951.26 1264.73C951.26 1264.73 962.36 1286.23 959.96 1302.33C959.035 1308.8 955.48 1316.37 954.367 1318.63C954.393 1318.66 954.419 1318.69 954.444 1318.73C946.087 1330.79 842.266 1348.5 762.5 1322.3C751.605 1318.72 735.7 1314.6 717.5 1306.5C716.7 1306.2 715.9 1305.8 715.2 1305.3C702.9 1297.4 690.6 1289.6 678.3 1281.7L647.4 1261.9C641.5 1258.1 639.8 1250.5 643.6 1245L668.7 1208.4L683.7 1186.5C687.9 1180.3 692.3 1173.9 696.8 1167.4C698.941 1167.47 695.075 1167.3 685.2 1166.9C650.775 1165.5 605.9 1158.9 588.9 1131.6C580.3 1117.7 578.8 1103.1 578.1 1096.4C574.2 1057.3 593.708 1037.16 600.1 1030.8C604.362 1026.56 615.092 1019.76 632.289 1010.39L744.254 1017L852.3 1021C852.483 1020.91 874.917 1019.26 895.348 1023.39Z" fill="#FFCB3D"/>
<path opacity="0.176986" d="M895 1023.4L922.659 1023.03C930.859 1022.53 941.159 1027.63 948.859 1033.43C950.459 1034.63 951.859 1035.93 953.159 1037.33C954.359 1038.63 955.559 1040.03 956.559 1041.53C960.959 1047.83 963.259 1055.33 963.159 1063.03C962.959 1079.73 960.959 1092.73 959.659 1097.03C951.159 1123.33 929.359 1222.03 951.259 1264.73C951.259 1264.73 962.359 1286.23 959.959 1302.33C959.021 1308.9 955.368 1316.61 954.317 1318.73C945.304 1306.68 909.637 1251.66 923.77 1157.61C924.17 1155.21 932.942 1103.36 932.942 1089.06C932.942 1037.42 920.434 1030.07 898.741 1024.31C897.508 1023.98 896.26 1023.68 895 1023.4Z" fill="#8C2A00"/>
<path d="M742.732 1100.6C737.798 1108.06 732.602 1115.31 719.985 1132.57C707.327 1149.89 702.114 1157.16 697.132 1164.7C696.523 1165.62 696.776 1166.86 697.697 1167.47C698.618 1168.08 699.859 1167.82 700.468 1166.9C705.402 1159.44 710.598 1152.19 723.215 1134.93C735.873 1117.61 741.086 1110.34 746.068 1102.8C746.678 1101.88 746.424 1100.64 745.503 1100.03C744.582 1099.42 743.341 1099.68 742.732 1100.6Z" fill="#482D1F"/>
<path d="M692.158 828.097C699.959 827.568 709.974 829.013 718.6 837.315C727 845.315 723 852.315 735.6 873.715C741.9 884.315 747.9 891.315 745.7 897.915C744.9 900.382 742.533 902.682 738.6 904.815C729.867 905.949 724.5 906.615 722.5 906.815C721.962 906.864 721.345 906.925 720.711 906.99L719.1 935.2L719 936.2L716.2 985.9L715.6 995.6C715.6 996.4 715.5 997.1 715.4 997.9C715.3 998.8 715.2 999.6 715.1 1000.5C714.8 1002.8 714.3 1005 713.7 1007.2C713.4 1008.1 713.2 1009 712.8 1009.9L610.6 1009.1L599.653 906.99C591.55 906.712 582.932 906.415 573.8 906.1C568.933 904.3 566 902.2 565 899.8C562.3 893.3 569.9 885.7 577.8 874.3C593.7 851.5 588.8 844.8 599.2 835.9C612.984 824.099 627.041 822.339 636.565 822.983C636.776 822.921 636.988 822.86 637.2 822.8C642.2 821.4 647.6 820.8 653.1 821.1L675.1 822.5C681.166 822.824 686.905 824.848 692.158 828.097Z" fill="#DE3190"/>
<path opacity="0.176986" d="M691.795 828.123C699.647 827.525 709.839 828.884 718.6 837.315C727 845.315 723 852.315 735.6 873.715C741.9 884.315 747.9 891.315 745.7 897.915C744.9 900.382 742.533 902.682 738.6 904.815C729.867 905.949 724.5 906.615 722.5 906.815C721.835 906.876 721.051 906.955 720.262 907.035L721.756 880.875C720.056 861.975 709.956 841.675 695.356 830.575C694.196 829.696 693.009 828.877 691.795 828.123Z" fill="#444444"/>
<path d="M716.921 965.193L718.556 936.175L718.656 935.175L720.272 906.867L736.873 904.833L742.04 967.344C753.059 968.245 764.147 969.097 775.3 969.9C787.4 970.8 799.5 971.6 811.4 972.3C813.043 971.342 826.747 970.08 842.537 972.3C847.39 972.982 854.511 974.975 863.9 978.278C881.7 983.489 893.644 987.19 899.732 989.379C908.864 992.663 899.732 998.8 887 998.8C884.44 998.8 847.947 1000.14 837.342 1001.63C837.522 1001.61 837.71 1001.58 837.904 1001.56L844.154 1003.26C847.372 1004.05 850.445 1005.24 853.455 1006.93C856.14 1008.44 858.824 1009.95 861.509 1011.46C862.243 1011.93 862.909 1012.71 863.262 1013.7C864.403 1016.66 864.062 1022.01 861.509 1022L706.467 1017.24C709.068 1017.04 711.665 1016.84 714.262 1016.63C690.435 1018.39 666.558 1019.47 639.5 1019.3C623.7 1019.2 619.7 1018.7 614.9 1016.2C594.3 1005.5 590.3 974.5 587 947.4C585.64 936.896 584.622 923.081 585.285 906.644C617.077 907.739 641.957 908.584 659.925 909.179C659.919 909.989 659.911 910.763 659.9 911.5C659.8 921.9 659.5 931.5 660.4 945.7C660.8 951.6 660.9 956.5 661.1 959.7C679.491 961.678 698.102 963.508 716.921 965.193V965.193ZM684.006 817.038L682.645 822.312C687.325 824.07 691.385 827.353 695.8 830.7C695.2 833.3 694.1 835.1 692.8 836.4C684.9 844.3 659.633 837.6 635.133 822.6C637.151 822.035 642.595 819.816 652.3 819.55C653.082 819.529 653.998 819.528 655.048 819.548C657.384 814.717 659.628 810.35 662.079 804.947C662.041 804.926 662.015 804.91 662 804.9L664.5 786.7C664.4 785.6 664.7 786.5 663.7 786.1C661.2 785.2 659 783.5 657.3 781.3C654.4 777.3 653.8 771.7 655.8 766.7C658.1 762 663.6 758.6 668.4 759.4C670.2 759.7 671.8 760.5 673.3 761.7L673.4 761.8C673.9 762.3 674.6 762.5 675.2 762.6C676.9 762.7 678.4 761.6 678.6 759.9L681.4 733.9C681.5 732.2 680.499 731.467 682.199 731.567C684.666 731.767 688.744 731.767 694.434 731.567C694.934 731.567 698.791 731.567 699.191 731.567C701.581 731.967 719.9 731 729.2 746C730 747.5 730.8 748.9 731.4 750.4C732.9 754.1 733.4 758.2 732.9 762.3L730.5 780.4C730.2 782.2 729.8 784 729.3 785.8C722.9 807.9 711.6 822.7 703 822.6C698.6 822.4 694.2 821.6 690.1 820C689.562 819.731 689.908 819.944 684.006 817.038Z" fill="#DB9E75"/>
<path opacity="0.2" d="M716.434 965.72L718.089 936.342L718.189 935.342L719.808 906.987L736.874 904.833L741.658 967.88C733.21 967.189 724.801 966.469 716.434 965.72V965.72ZM837.871 1001.67L843.545 1003.2C846.763 1003.99 849.943 1005.03 852.954 1006.73C855.638 1008.24 858.824 1009.95 861.509 1011.46C862.244 1011.93 862.909 1012.71 863.262 1013.7C864.403 1016.66 864.062 1022.01 861.509 1022L706.082 1017.4C726.942 1015.85 747.507 1013.75 769.856 1011.62C776.756 1011.02 833.522 1003.12 836.722 1001.82C837.075 1001.77 837.459 1001.72 837.871 1001.67Z" fill="#8C2A00"/>
<path d="M648.451 962.192C647.627 962.276 646.891 961.676 646.808 960.851C646.724 960.027 647.324 959.291 648.148 959.208L660.948 957.908C661.773 957.824 662.509 958.424 662.592 959.248C662.676 960.073 662.076 960.809 661.251 960.892L648.451 962.192ZM659.546 909.778C658.73 909.638 658.181 908.863 658.322 908.046C658.462 907.23 659.237 906.681 660.054 906.822C660.087 906.827 660.179 906.84 660.322 906.854C661.615 906.979 663.113 906.849 664.493 906.281C667.005 905.247 668.578 902.974 668.802 898.819C669.092 893.461 668.872 889.2 668.334 885.962C668.207 885.196 668.072 884.556 667.939 884.038C667.864 883.745 667.81 883.567 667.786 883.501C667.509 882.72 667.918 881.863 668.699 881.586C669.48 881.309 670.337 881.718 670.614 882.499C670.797 883.016 671.049 883.997 671.294 885.47C671.868 888.928 672.099 893.408 671.798 898.981C671.511 904.277 669.23 907.575 665.635 909.055C663.733 909.838 661.771 910.008 660.033 909.84C659.814 909.818 659.649 909.796 659.546 909.778Z" fill="#482D1F"/>
<path d="M684.4 816.6L674.1 812.1L681.4 827L684.4 816.6Z" fill="#482D1F"/>
<path d="M680.56 778.021L677.8 768.2C676.9 765.8 675.4 763.7 673.5 762C672 760.8 670.4 760 668.6 759.7C663.8 758.9 658.3 762.3 656 767C653.8 771.7 654.3 777.3 657.5 781.3C659.464 783.95 662.198 785.83 665.419 786.655C664.027 794.404 662 805.1 662 805.1C662 805.1 659.543 803.959 654.629 801.678C642.728 795.025 636.261 782.613 635.229 764.442C615.858 771.906 597.345 766.696 590.1 755.6C584.6 747.1 585.81 735.774 586.2 734.2C590.1 718.464 603.5 716.1 603.5 716.1C603.5 716.1 622.8 706.2 643.4 736.4C643.478 736.514 643.556 736.63 643.634 736.747C645.878 734.429 648.648 732.738 651.6 731.5C659.9 728.1 665.8 730.5 681.6 731.2C684.8 731.4 689.6 731.5 695.6 731.3C696.1 731.3 696.5 731.3 696.9 731.3C700.5 731.2 719.966 731.099 729.266 746.099C729.166 746.399 729.026 746.678 728.8 747.1C728.8 747.1 709.49 780.446 680.56 778.021ZM718.8 775C716.8 775.2 713.5 775.3 710.9 774.2C706.4 772.5 711.2 770.4 715.4 770.8C717.4 770.9 718.8 772 719.7 772.9C720.3 773.7 719.8 774.9 718.8 775ZM735.7 777.1C733.6 777.5 730.5 777.9 727.7 777C723 775.7 727.5 773.1 731.8 773.2C734 773.3 735.4 774.1 736.4 775C737.1 775.7 736.7 776.9 735.7 777.1Z" fill="#482D1F"/>
<path d="M726.7 787.5C726 786.2 726.7 783.5 727.2 781.8C727.5 780.6 728.8 779.9 729.9 780.1C730.6 780.3 731.4 780.8 731.4 782.2C731.6 785.6 727.6 789.7 726.7 787.5ZM710.3 785.2C709.5 783.9 710.3 781.2 710.8 779.5C711.1 778.3 712.4 777.6 713.5 777.8C714.2 778 715 778.5 715 779.9C715.2 783.3 711.3 787.4 710.3 785.2Z" fill="#482D1F"/>
<path d="M726.759 779.786C726.916 779.257 726.615 778.7 726.086 778.542C725.557 778.384 725 778.685 724.842 779.214L723.142 784.914L723.113 785.042L721.413 795.642C721.407 795.68 721.32 795.736 721.142 795.71C720.103 795.462 718.898 795.163 717.613 794.832C717.078 794.694 716.533 795.015 716.395 795.55C716.257 796.085 716.578 796.63 717.113 796.768C718.411 797.103 719.631 797.405 720.771 797.673C722.067 797.863 723.192 797.132 723.387 795.964L725.077 785.423L726.759 779.786Z" fill="#482D1F"/>
<path d="M684.4 817.1L676.6 813.2L680 831.6L684.4 817.1Z" fill="#482D1F"/>
<path d="M714.2 804.6C713.5 804.4 711.8 803.8 711.6 802.6C711.6 802.4 711.5 802.1 711.6 801.9C711.9 801.4 715.1 801.9 715.1 801.9C719.1 802.6 720.2 802.5 720.4 803.1C720.5 803.4 720.4 803.8 719.5 804.6C718.4 806.1 715.2 805 714.2 804.6Z" fill="#482D1F"/>
<path d="M1402.27 996.002L1411.89 957.2H1339.7C1332.2 957.2 1326 951.5 1326 944.6V834.7C1325.9 827.7 1332 822 1339.6 822H1559.3C1566.8 822 1573 827.7 1573 834.6V944.6C1573 951.5 1566.8 957.2 1559.3 957.2H1471.33L1467.36 996.002H1493.4C1497.4 996.002 1500.5 999.202 1500.5 1003.1C1500.5 1007.1 1497.3 1010.2 1493.4 1010.2H1381.9C1377.9 1010.2 1374.8 1007 1374.8 1003.1C1374.6 999.202 1377.9 996.002 1381.9 996.002H1402.27Z" fill="#474961"/>
<path fill-rule="evenodd" clip-rule="evenodd" d="M1474.31 928.919L1474.6 996.102H1467.43L1474.31 928.919Z" fill="white"/>
<path d="M961.452 1006.51C960.455 1008.27 958.565 1009.46 956.4 1009.46H812.7C809.5 1009.46 807 1006.86 807 1003.66C807 1000.46 809.6 997.86 812.7 997.86H952.475L1001.2 866.76C1002.3 863.76 1005.6 862.26 1008.6 863.36C1011.6 864.46 1013.1 867.76 1012 870.76L961.9 1005.56C961.777 1005.9 961.626 1006.21 961.452 1006.51Z" fill="#474961"/>
<path d="M1891 1010H614C610.134 1010 607 1013.13 607 1017C607 1020.87 610.134 1024 614 1024H1891C1894.87 1024 1898 1020.87 1898 1017C1898 1013.13 1894.87 1010 1891 1010Z" fill="#D8DEED"/>
<path d="M1071.7 244H717.296C714.923 244 713 245.92 713 248.288V517.712C713 520.08 714.923 522 717.296 522H1071.7C1074.08 522 1076 520.08 1076 517.712V248.288C1076 245.92 1074.08 244 1071.7 244Z" fill="#F2F6FB"/>
<path d="M997.829 393.363H1019.57C1022.76 393.363 1023.92 393.694 1025.08 394.317C1026.25 394.94 1027.17 395.854 1027.79 397.019C1028.41 398.183 1028.75 399.338 1028.75 402.524V522H988.651V402.524C988.651 399.338 988.983 398.183 989.607 397.019C990.231 395.854 991.147 394.94 992.314 394.317C993.48 393.694 994.638 393.363 997.829 393.363Z" fill="#D8DEED"/>
<path d="M952.007 424.093H974.46C977.652 424.093 978.809 424.424 979.976 425.047C981.143 425.67 982.058 426.584 982.682 427.749C983.306 428.913 983.639 430.068 983.639 433.254V522H942.828V433.254C942.828 430.068 943.16 428.913 943.784 427.749C944.408 426.584 945.324 425.67 946.491 425.047C947.658 424.424 948.815 424.093 952.007 424.093Z" fill="#D8DEED"/>
<path d="M906.9 328.329H928.638C931.829 328.329 932.987 328.661 934.154 329.284C935.32 329.906 936.236 330.82 936.86 331.985C937.484 333.15 937.816 334.305 937.816 337.491V522H897.722V337.491C897.722 334.305 898.054 333.15 898.678 331.985C899.302 330.82 900.218 329.906 901.384 329.284C902.551 328.661 903.709 328.329 906.9 328.329Z" fill="#E1E5F0"/>
<path d="M861.078 353.342H882.816C886.007 353.342 887.165 353.674 888.331 354.296C889.498 354.919 890.414 355.833 891.038 356.998C891.662 358.163 891.994 359.318 891.994 362.503V522H851.899V362.503C851.899 359.318 852.232 358.163 852.856 356.998C853.48 355.833 854.395 354.919 855.562 354.296C856.729 353.674 857.886 353.342 861.078 353.342Z" fill="#D8DEED"/>
<path d="M815.971 411.943H837.709C840.9 411.943 842.058 412.275 843.224 412.898C844.391 413.521 845.307 414.435 845.931 415.599C846.555 416.764 846.887 417.919 846.887 421.105V522H806.792V421.105C806.792 417.919 807.125 416.764 807.749 415.599C808.373 414.435 809.288 413.521 810.455 412.898C811.622 412.275 812.779 411.943 815.971 411.943Z" fill="#D8DEED"/>
<path d="M770.149 382.643H791.886C795.078 382.643 796.235 382.974 797.402 383.597C798.569 384.22 799.485 385.134 800.109 386.299C800.733 387.463 801.065 388.619 801.065 391.804V522H760.97V391.804C760.97 388.619 761.303 387.463 761.927 386.299C762.551 385.134 763.466 384.22 764.633 383.597C765.8 382.974 766.957 382.643 770.149 382.643Z" fill="#D8DEED"/>
<path d="M1730.68 237H1396.32C1388.41 237 1382 243.399 1382 251.293V500.707C1382 508.601 1388.41 515 1396.32 515H1730.68C1738.59 515 1745 508.601 1745 500.707V251.293C1745 243.399 1738.59 237 1730.68 237Z" fill="#F2F6FB"/>
<path d="M1438.27 457.847L1492.46 375.762C1497.6 367.969 1508.88 367.166 1515.06 374.15L1536.92 398.78C1546.9 409.998 1564.98 408.278 1572.61 395.403L1624.75 307.263C1629.97 298.434 1642.43 297.826 1648.58 306.072L1703.88 381.161C1705.17 382.91 1707.63 383.285 1709.39 382C1711.14 380.714 1711.51 378.254 1710.23 376.504L1654.91 301.398C1645.4 288.639 1626.05 289.582 1617.97 303.268L1565.83 391.404C1560.92 399.686 1549.25 400.797 1542.81 393.564L1520.96 368.941C1511.34 358.078 1493.88 359.323 1485.88 371.438L1431.69 453.521C1430.5 455.334 1431 457.771 1432.82 458.966C1434.63 460.16 1437.07 459.659 1438.27 457.847Z" fill="#E1E5F0"/>
<path d="M1460.4 429.242C1466.92 429.242 1472.21 423.962 1472.21 417.45C1472.21 410.937 1466.92 405.658 1460.4 405.658C1453.88 405.658 1448.59 410.937 1448.59 417.45C1448.59 423.962 1453.88 429.242 1460.4 429.242Z" fill="#F50041"/>
<path d="M1592.14 365.638C1598.66 365.638 1603.95 360.358 1603.95 353.846C1603.95 347.333 1598.66 342.054 1592.14 342.054C1585.61 342.054 1580.33 347.333 1580.33 353.846C1580.33 360.358 1585.61 365.638 1592.14 365.638Z" fill="#FFCB3D"/>
<path d="M1391.68 269H1057.32C1049.41 269 1043 275.399 1043 283.293V532.707C1043 540.601 1049.41 547 1057.32 547H1391.68C1399.59 547 1406 540.601 1406 532.707V283.293C1406 275.399 1399.59 269 1391.68 269Z" fill="#F2F6FB"/>
<path d="M1258.74 478.514C1293.88 458.264 1305.95 413.464 1285.69 378.449C1265.44 343.434 1220.52 331.464 1185.37 351.714C1150.23 371.964 1138.16 416.764 1158.42 451.779C1178.67 486.794 1223.59 498.764 1258.74 478.514ZM1246.98 458.194C1223.07 471.971 1192.53 463.834 1178.77 440.05C1165.01 416.266 1173.22 385.81 1197.13 372.034C1221.04 358.257 1251.58 366.394 1265.34 390.178C1279.1 413.962 1270.89 444.417 1246.98 458.194Z" fill="#E1E5F0"/>
<path d="M1179.5 341.554C1138.73 365.04 1124.73 417.014 1148.24 457.644C1171.74 498.274 1223.85 512.16 1264.61 488.674C1305.38 465.188 1319.38 413.214 1295.87 372.584L1275.52 384.313C1292.53 413.713 1282.39 451.341 1252.86 468.354C1223.33 485.367 1185.6 475.314 1168.6 445.915C1151.59 416.515 1161.72 378.887 1191.25 361.874L1179.5 341.554Z" fill="#474BFF"/>
<path d="M1178.87 338.268C1137 362.393 1122.62 415.783 1146.77 457.522C1170.91 499.261 1224.44 513.525 1266.31 489.4L1252.22 465.052C1223.81 481.42 1187.52 471.749 1171.16 443.467C1154.8 415.186 1164.55 378.985 1192.96 362.617L1178.87 338.268Z" fill="#D8DEED"/>
<path d="M1043 283.296C1043 275.401 1049.42 269 1057.31 269H1391.69C1399.59 269 1406 275.401 1406 283.296V300.445H1043V283.296Z" fill="#E1E5F0"/>
<path d="M1064.12 291.869C1067.88 291.869 1070.92 288.829 1070.92 285.08C1070.92 281.33 1067.88 278.291 1064.12 278.291C1060.36 278.291 1057.32 281.33 1057.32 285.08C1057.32 288.829 1060.36 291.869 1064.12 291.869Z" fill="#FF5645"/>
<path d="M1086.32 291.869C1090.07 291.869 1093.12 288.829 1093.12 285.08C1093.12 281.33 1090.07 278.291 1086.32 278.291C1082.56 278.291 1079.51 281.33 1079.51 285.08C1079.51 288.829 1082.56 291.869 1086.32 291.869Z" fill="#FFCB3D"/>
<path d="M1109.23 291.869C1112.98 291.869 1116.03 288.829 1116.03 285.08C1116.03 281.33 1112.98 278.291 1109.23 278.291C1105.47 278.291 1102.43 281.33 1102.43 285.08C1102.43 288.829 1105.47 291.869 1109.23 291.869Z" fill="#F50041"/>
<path d="M421.3 774.2H115.7C103.7 774.2 93.8999 765.316 93.8999 754.438V571.961C93.8999 561.084 103.7 552.2 115.7 552.2H421.3C433.3 552.2 443.1 561.084 443.1 571.961V754.348C443.1 765.316 433.3 774.2 421.3 774.2Z" fill="#F2F6FB"/>
<path d="M94 551.005C94 539.957 102.956 531 114.001 531H422.999C434.045 531 443 539.962 443 551.005V574H94V551.005Z" fill="#E1E5F0"/>
<path d="M147.75 655H186.25C189.426 655 192 657.574 192 660.75C192 663.926 189.426 666.5 186.25 666.5H147.75C144.574 666.5 142 663.926 142 660.75C142 657.574 144.574 655 147.75 655ZM147.75 719H186.25C189.426 719 192 721.574 192 724.75C192 727.926 189.426 730.5 186.25 730.5H147.75C144.574 730.5 142 727.926 142 724.75C142 721.574 144.574 719 147.75 719ZM206.75 655H245.25C248.426 655 251 657.574 251 660.75C251 663.926 248.426 666.5 245.25 666.5H206.75C203.574 666.5 201 663.926 201 660.75C201 657.574 203.574 655 206.75 655ZM206.75 719H245.25C248.426 719 251 721.574 251 724.75C251 727.926 248.426 730.5 245.25 730.5H206.75C203.574 730.5 201 727.926 201 724.75C201 721.574 203.574 719 206.75 719ZM265.75 655H304.25C307.426 655 310 657.574 310 660.75C310 663.926 307.426 666.5 304.25 666.5H265.75C262.574 666.5 260 663.926 260 660.75C260 657.574 262.574 655 265.75 655ZM265.75 719H304.25C307.426 719 310 721.574 310 724.75C310 727.926 307.426 730.5 304.25 730.5H265.75C262.574 730.5 260 727.926 260 724.75C260 721.574 262.574 719 265.75 719ZM147.75 623H219.25C222.426 623 225 625.574 225 628.75C225 631.926 222.426 634.5 219.25 634.5H147.75C144.574 634.5 142 631.926 142 628.75C142 625.574 144.574 623 147.75 623ZM309.75 623H390.25C393.426 623 396 625.574 396 628.75C396 631.926 393.426 634.5 390.25 634.5H309.75C306.574 634.5 304 631.926 304 628.75C304 625.574 306.574 623 309.75 623ZM309.75 687H390.25C393.426 687 396 689.574 396 692.75C396 695.926 393.426 698.5 390.25 698.5H309.75C306.574 698.5 304 695.926 304 692.75C304 689.574 306.574 687 309.75 687ZM239.75 687H254.25C257.426 687 260 689.574 260 692.75C260 695.926 257.426 698.5 254.25 698.5H239.75C236.574 698.5 234 695.926 234 692.75C234 689.574 236.574 687 239.75 687ZM274.75 623H289.25C292.426 623 295 625.574 295 628.75C295 631.926 292.426 634.5 289.25 634.5H274.75C271.574 634.5 269 631.926 269 628.75C269 625.574 271.574 623 274.75 623ZM324.75 655H390.25C393.426 655 396 657.574 396 660.75C396 663.926 393.426 666.5 390.25 666.5H324.75C321.574 666.5 319 663.926 319 660.75C319 657.574 321.574 655 324.75 655Z" fill="#E1E5F0"/>
<path d="M147.75 687H219.25C222.426 687 225 689.574 225 692.75C225 695.926 222.426 698.5 219.25 698.5H147.75C144.574 698.5 142 695.926 142 692.75C142 689.574 144.574 687 147.75 687ZM274.75 687H289.25C292.426 687 295 689.574 295 692.75C295 695.926 292.426 698.5 289.25 698.5H274.75C271.574 698.5 269 695.926 269 692.75C269 689.574 271.574 687 274.75 687Z" fill="#A339FF"/>
<path d="M239.75 623H254.25C257.426 623 260 625.574 260 628.75C260 631.926 257.426 634.5 254.25 634.5H239.75C236.574 634.5 234 631.926 234 628.75C234 625.574 236.574 623 239.75 623ZM324.75 719H390.25C393.426 719 396 721.574 396 724.75C396 727.926 393.426 730.5 390.25 730.5H324.75C321.574 730.5 319 727.926 319 724.75C319 721.574 321.574 719 324.75 719Z" fill="#FF5645"/>
<path d="M145 500H20C8.9543 500 0 508.954 0 520V583C0 594.046 8.9543 603 20 603H145C156.046 603 165 594.046 165 583V520C165 508.954 156.046 500 145 500Z" fill="#F50041"/>
<path fill-rule="evenodd" clip-rule="evenodd" d="M57.235 524.866C58.9661 527.017 58.6253 530.165 56.4739 531.896L28.9605 554.033L57.4024 569.615C59.8242 570.942 60.7119 573.981 59.3851 576.402C58.0583 578.824 55.0195 579.712 52.5977 578.385L17.5977 559.21C16.1336 558.408 15.1665 556.928 15.0195 555.265C14.8725 553.603 15.565 551.976 16.8656 550.93L50.2051 524.104C52.3565 522.373 55.504 522.714 57.235 524.866Z" fill="white"/>
<path fill-rule="evenodd" clip-rule="evenodd" d="M102.824 525.25C104.343 522.944 107.444 522.305 109.75 523.824L144.75 546.874C146.141 547.79 146.984 549.338 147 551.003C147.016 552.668 146.201 554.231 144.828 555.173L111.367 578.123C109.089 579.685 105.977 579.105 104.415 576.828C102.853 574.551 103.433 571.439 105.71 569.877L133.037 551.134L104.25 532.176C101.944 530.657 101.305 527.556 102.824 525.25Z" fill="white"/>
<path fill-rule="evenodd" clip-rule="evenodd" d="M89.3408 513.498C92.0336 514.11 93.7203 516.79 93.1082 519.482L77.8757 586.493C77.2636 589.186 74.5846 590.872 71.8918 590.26C69.1991 589.648 67.5124 586.969 68.1245 584.276L83.3569 517.266C83.969 514.573 86.6481 512.886 89.3408 513.498Z" fill="white"/>
<path d="M599.815 0H231.414C222.901 0 216 6.90563 216 15.4242V284.576C216 293.094 222.901 300 231.414 300H599.815C608.328 300 615.229 293.094 615.229 284.576V15.4242C615.229 6.90563 608.328 0 599.815 0Z" fill="#F2F6FB"/>
<path d="M276.027 276.659C256.07 276.659 239.892 260.304 239.892 240.129C239.892 219.954 256.07 203.599 276.027 203.599C295.983 203.599 312.161 219.954 312.161 240.129C312.161 260.304 295.983 276.659 276.027 276.659ZM276.106 239.976C278.772 239.976 280.934 237.819 280.934 235.158C280.934 232.497 278.772 230.34 276.106 230.34C273.439 230.34 271.278 232.497 271.278 235.158C271.278 237.819 273.439 239.976 276.106 239.976ZM276.106 242.385C271.273 242.385 267.355 246.295 267.355 251.118H284.856C284.856 246.295 280.938 242.385 276.106 242.385Z" fill="#D8DEED"/>
<path d="M239.892 64.7867C239.892 63.0801 241.267 61.6967 242.974 61.6967H498.104C499.806 61.6967 501.186 63.0777 501.186 64.7867V175.257C501.186 176.964 499.812 178.347 498.104 178.347H242.974C241.272 178.347 239.892 176.966 239.892 175.257V64.7867ZM336.54 233.325H539.037C542.188 233.325 544.741 235.88 544.741 239.033V242.113C544.741 245.265 542.188 247.821 539.037 247.821H336.54C333.39 247.821 330.836 245.265 330.836 242.113V239.033C330.836 235.88 333.39 233.325 336.54 233.325ZM336.54 256.881H575.292C578.443 256.881 580.996 259.436 580.996 262.589V265.669C580.996 268.821 578.443 271.377 575.292 271.377H336.54C333.39 271.377 330.836 268.821 330.836 265.669V262.589C330.836 259.436 333.39 256.881 336.54 256.881ZM336.54 209.769H488.28C491.43 209.769 493.984 212.324 493.984 215.476V218.557C493.984 221.709 491.43 224.265 488.28 224.265H336.54C333.39 224.265 330.836 221.709 330.836 218.557V215.476C330.836 212.324 333.39 209.769 336.54 209.769ZM216 15.4276C216 6.90715 222.901 0 231.42 0H600.58C609.096 0 616 6.90778 616 15.4276V33.9332H216V15.4276Z" fill="#E1E5F0"/>
<path d="M532.061 152.83H579.183C581.828 152.83 584.115 153.367 585.999 154.375C587.883 155.383 589.362 156.863 590.369 158.748C591.377 160.633 591.913 162.921 591.913 165.568V165.609C591.913 168.256 591.377 170.544 590.369 172.429C589.362 174.314 587.883 175.794 585.999 176.802C584.115 177.81 581.828 178.347 579.183 178.347H532.061C529.416 178.347 527.13 177.81 525.246 176.802C523.362 175.794 521.883 174.314 520.876 172.429C519.868 170.544 519.332 168.256 519.332 165.609V165.568C519.332 162.921 519.868 160.633 520.876 158.748C521.883 156.863 523.362 155.383 525.246 154.375C527.13 153.367 529.416 152.83 532.061 152.83Z" fill="#A339FF"/>
<path d="M238.736 24.6786C242.78 24.6786 246.058 21.3984 246.058 17.3521C246.058 13.3058 242.78 10.0256 238.736 10.0256C234.692 10.0256 231.414 13.3058 231.414 17.3521C231.414 21.3984 234.692 24.6786 238.736 24.6786Z" fill="#FF5645"/>
<path d="M262.628 24.6786C266.672 24.6786 269.95 21.3984 269.95 17.3521C269.95 13.3058 266.672 10.0256 262.628 10.0256C258.584 10.0256 255.306 13.3058 255.306 17.3521C255.306 21.3984 258.584 24.6786 262.628 24.6786Z" fill="#FFCB3D"/>
<path d="M287.291 24.6786C291.335 24.6786 294.613 21.3984 294.613 17.3521C294.613 13.3058 291.335 10.0256 287.291 10.0256C283.247 10.0256 279.969 13.3058 279.969 17.3521C279.969 21.3984 283.247 24.6786 287.291 24.6786Z" fill="#3ABF7C"/>
<defs>
<clipPath id="clip0">
<path d="M1045 873H1375V1393H1045V873Z" fill="white"/>
</clipPath>
<clipPath id="clip1">
<path d="M1627 878H1958V1393H1627V878Z" fill="white"/>
</clipPath>
<clipPath id="clip2">
<path d="M1422 637H1944V1393H1422V637Z" fill="white"/>
</clipPath>
</defs>
</svg>
